# Blender 5.2.0 LTS
# www.blender.org
mtllib Sword.mtl
o Crossguard
v -1.742071 -3.034411 -0.050725
v -1.687713 -3.017792 -0.059294
v -1.716280 -3.026526 -0.057283
v -1.735368 -3.032362 -0.054274
v -1.742071 -3.034411 0.050725
v -1.735368 -3.032362 0.054274
v -1.716280 -3.026526 0.057283
v -1.687713 -3.017792 0.059294
v -1.713282 -3.114965 -0.050725
v -1.711873 -3.118277 -0.050846
v -1.710086 -3.121427 -0.051200
v -1.708044 -3.124200 -0.051764
v -1.705885 -3.126407 -0.052499
v -1.703757 -3.127898 -0.053356
v -1.713282 -3.114965 0.050725
v -1.703757 -3.127898 0.053356
v -1.705885 -3.126407 0.052499
v -1.708044 -3.124200 0.051764
v -1.710086 -3.121427 0.051200
v -1.711873 -3.118277 0.050846
v 1.742071 -3.034411 -0.050725
v 1.687713 -3.017792 -0.059294
v 1.716280 -3.026526 -0.057283
v 1.735368 -3.032362 -0.054274
v 1.742071 -3.034411 0.050725
v 1.735368 -3.032362 0.054274
v 1.716280 -3.026526 0.057283
v 1.687713 -3.017792 0.059294
v 1.713282 -3.114965 -0.050725
v 1.711873 -3.118277 -0.050846
v 1.710086 -3.121427 -0.051200
v 1.708044 -3.124200 -0.051764
v 1.705885 -3.126407 -0.052499
v 1.703757 -3.127898 -0.053356
v 1.713282 -3.114965 0.050725
v 1.703757 -3.127898 0.053356
v 1.705885 -3.126407 0.052499
v 1.708044 -3.124200 0.051764
v 1.710086 -3.121427 0.051200
v 1.711873 -3.118277 0.050846
v -1.588818 -3.143686 -0.060000
v -1.588818 -3.143686 0.060000
v -0.000000 -3.406765 0.199997
v -0.000000 -3.006772 0.199998
v -0.000000 -3.406765 -0.199997
v 0.000000 -3.006772 -0.199998
v -1.617489 -3.139851 -0.059999
v -1.701805 -3.128569 -0.054274
v -1.682017 -3.131216 -0.057282
v -1.652410 -3.135178 -0.059293
v -1.617489 -3.139851 0.059999
v -1.652411 -3.135178 0.059293
v -1.682017 -3.131216 0.057282
v -1.701805 -3.128569 0.054274
v -1.912426 -2.422789 -0.050724
v -1.832438 -2.468396 -0.059999
v -1.906338 -2.426260 -0.054273
v -1.888999 -2.436147 -0.057282
v -1.863049 -2.450943 -0.059293
v -1.912426 -2.422789 0.050724
v -1.863049 -2.450943 0.059293
v -1.888999 -2.436147 0.057282
v -1.906338 -2.426260 0.054273
v -0.528460 -3.004257 -0.154507
v -1.663460 -2.893164 -0.060000
v -1.653992 -3.007485 -0.060001
v -1.598874 -3.104933 -0.060001
v -0.813870 -2.999297 -0.130048
v -1.082375 -2.987460 -0.107253
v -1.315656 -2.969553 -0.087679
v -1.497820 -2.946795 -0.072660
v -1.616452 -2.920737 -0.063218
v -1.663429 -2.893188 0.060002
v -1.663458 -2.893164 0.060000
v -0.528460 -3.004257 0.154507
v -1.598874 -3.104933 0.060001
v -1.653992 -3.007485 0.060001
v -1.616452 -2.920737 0.063218
v -1.497820 -2.946795 0.072660
v -1.315656 -2.969553 0.087679
v -1.082375 -2.987460 0.107253
v -0.813870 -2.999297 0.130048
v -1.799579 -2.504813 -0.059999
v -1.802439 -2.498608 -0.059999
v -1.806817 -2.491849 -0.059999
v -1.812414 -2.484997 -0.059999
v -1.818849 -2.478519 -0.059999
v -1.825683 -2.472856 -0.059999
v -1.832438 -2.468396 0.059999
v -1.799579 -2.504813 0.059999
v -1.825683 -2.472856 0.059999
v -1.818849 -2.478519 0.059999
v -1.812414 -2.484997 0.059999
v -1.806817 -2.491849 0.059999
v -1.802439 -2.498608 0.059999
v 1.588818 -3.143686 -0.060000
v 1.588818 -3.143686 0.060000
v 1.617489 -3.139851 -0.059999
v 1.701805 -3.128569 -0.054274
v 1.682017 -3.131216 -0.057282
v 1.652411 -3.135178 -0.059293
v 1.617489 -3.139851 0.059999
v 1.652411 -3.135178 0.059293
v 1.682017 -3.131216 0.057282
v 1.701805 -3.128569 0.054274
v 1.912426 -2.422789 -0.050724
v 1.832438 -2.468396 -0.059999
v 1.906338 -2.426260 -0.054273
v 1.888999 -2.436147 -0.057282
v 1.863049 -2.450943 -0.059293
v 1.912426 -2.422789 0.050724
v 1.863049 -2.450943 0.059293
v 1.888999 -2.436147 0.057282
v 1.906338 -2.426260 0.054273
v 0.528460 -3.004257 -0.154507
v 1.663452 -2.893169 -0.060000
v 1.653992 -3.007485 -0.060001
v 1.598874 -3.104933 -0.060001
v 0.813870 -2.999297 -0.130048
v 1.082375 -2.987460 -0.107253
v 1.315656 -2.969553 -0.087679
v 1.497820 -2.946795 -0.072660
v 1.616453 -2.920737 -0.063218
v 1.663462 -2.893162 0.059999
v 1.663437 -2.893182 0.060001
v 0.528460 -3.004257 0.154507
v 1.598874 -3.104933 0.060001
v 1.653992 -3.007485 0.060001
v 1.616452 -2.920737 0.063218
v 1.497820 -2.946795 0.072660
v 1.315656 -2.969553 0.087679
v 1.082375 -2.987460 0.107253
v 0.813870 -2.999297 0.130048
v 1.799579 -2.504813 -0.059999
v 1.802439 -2.498608 -0.059999
v 1.806817 -2.491849 -0.059999
v 1.812414 -2.484997 -0.059999
v 1.818849 -2.478519 -0.059999
v 1.825683 -2.472856 -0.059999
v 1.832438 -2.468396 0.059999
v 1.799579 -2.504813 0.059999
v 1.825683 -2.472856 0.059999
v 1.818849 -2.478519 0.059999
v 1.812414 -2.484997 0.059999
v 1.806817 -2.491849 0.059999
v 1.802439 -2.498608 0.059999
vn -0.9202 -0.3915 -0.0000
vn -0.8698 -0.4934 -0.0000
vn -0.8052 -0.5930 -0.0000
vn -0.7148 -0.6993 -0.0000
vn -0.5737 -0.8191 -0.0000
vn -0.9417 -0.3365 -0.0000
vn 0.9202 -0.3915 -0.0000
vn 0.8698 -0.4934 -0.0000
vn 0.8052 -0.5930 -0.0000
vn 0.7148 -0.6993 -0.0000
vn 0.5737 -0.8191 -0.0000
vn 0.9417 -0.3365 -0.0000
vn -0.0797 -0.0066 0.9968
vn -0.0520 0.0280 0.9983
vn 0.0814 -0.0067 0.9967
vn 0.0425 0.0432 0.9982
vn -0.1326 -0.9912 -0.0000
vn -0.0001 -0.0000 -1.0000
vn -0.1634 -0.9866 -0.0000
vn -0.0875 -0.0035 -0.9962
vn -0.0001 -0.0000 1.0000
vn -0.0875 -0.0035 0.9962
vn 0.1634 -0.9866 -0.0000
vn 0.0875 -0.0035 0.9962
vn -0.0048 1.0000 -0.0000
vn 0.0048 1.0000 -0.0000
vn 0.0875 -0.0035 -0.9962
vn -0.0201 -0.0058 -0.9998
vn -0.1487 -0.0502 -0.9876
vn -0.4448 -0.1570 -0.8817
vn -0.0672 -0.0211 -0.9975
vn -0.0201 -0.0058 0.9998
vn -0.0672 -0.0211 0.9975
vn -0.1487 -0.0502 0.9876
vn -0.4449 -0.1570 0.8817
vn 0.4953 0.8687 -0.0000
vn -0.4923 -0.1380 -0.8594
vn -0.9633 -0.2683 -0.0000
vn -0.0228 -0.0073 -0.9997
vn -0.0000 -0.0000 -1.0000
vn -0.1680 -0.0483 -0.9846
vn -0.0761 -0.0229 -0.9968
vn -0.0228 -0.0073 0.9997
vn -0.0000 -0.0000 1.0000
vn -0.4923 -0.1380 0.8594
vn -0.0761 -0.0229 0.9968
vn -0.1680 -0.0483 0.9846
vn -0.0827 -0.0238 -0.9963
vn 0.0174 0.9998 -0.0000
vn 0.5060 0.8626 -0.0000
vn 0.9437 0.3308 -0.0000
vn 0.0440 0.9990 -0.0000
vn 0.0765 0.9971 -0.0000
vn 0.1240 0.9923 -0.0000
vn 0.2145 0.9767 -0.0000
vn -0.0827 -0.0238 0.9963
vn 0.9082 0.4186 -0.0000
vn 0.5510 0.8345 -0.0000
vn 0.8393 0.5436 -0.0000
vn 0.7745 0.6326 -0.0000
vn 0.7094 0.7048 -0.0000
vn 0.6380 0.7700 -0.0000
vn -0.3252 -0.9456 -0.0000
vn 0.1326 -0.9912 -0.0000
vn 0.0001 -0.0000 -1.0000
vn 0.0001 -0.0000 1.0000
vn 0.0201 -0.0058 -0.9998
vn 0.1487 -0.0502 -0.9876
vn 0.4449 -0.1570 -0.8817
vn 0.0672 -0.0211 -0.9975
vn 0.0201 -0.0058 0.9998
vn 0.0672 -0.0211 0.9975
vn 0.1487 -0.0502 0.9876
vn 0.4448 -0.1570 0.8817
vn -0.4953 0.8687 -0.0000
vn 0.4923 -0.1380 -0.8594
vn 0.9633 -0.2683 -0.0000
vn 0.0228 -0.0073 -0.9997
vn 0.1680 -0.0483 -0.9846
vn 0.0761 -0.0229 -0.9968
vn 0.0228 -0.0073 0.9997
vn 0.4923 -0.1380 0.8594
vn 0.0761 -0.0229 0.9968
vn 0.1680 -0.0483 0.9846
vn 0.0827 -0.0238 -0.9963
vn -0.0174 0.9998 -0.0000
vn -0.5060 0.8626 -0.0000
vn -0.9437 0.3308 -0.0000
vn -0.0440 0.9990 -0.0000
vn -0.0765 0.9971 -0.0000
vn -0.1240 0.9923 -0.0000
vn -0.2145 0.9767 -0.0000
vn 0.0827 -0.0238 0.9963
vn -0.9082 0.4186 -0.0000
vn -0.5510 0.8345 -0.0000
vn -0.8393 0.5436 -0.0000
vn -0.7745 0.6326 -0.0000
vn -0.7094 0.7048 -0.0000
vn -0.6380 0.7700 -0.0000
vn 0.3252 -0.9456 -0.0000
vt 0.408990 0.019324
vt 0.408990 0.230676
vt 0.400150 0.230928
vt 0.400150 0.019072
vt 0.391838 0.231667
vt 0.391838 0.018333
vt 0.378497 0.231398
vt 0.378497 0.018602
vt 0.377428 0.228056
vt 0.377428 -0.025962
vt 0.376951 0.234760
vt 0.376951 0.003447
vt 0.625000 0.019324
vt 0.625000 0.230676
vt 0.620171 0.250001
vt 0.625004 0.249997
vt 0.625012 0.249993
vt 0.625010 0.249994
vt 0.648170 0.237228
vt 0.620171 0.250001
vt 0.625004 0.249997
vt 0.625000 0.250000
vt 0.625010 0.249994
vt 0.648188 0.237231
vt 0.625004 0.250006
vt 0.375000 0.250020
vt 0.375000 0.999980
vt 0.375000 0.999902
vt 0.375003 0.999588
vt 0.383495 0.000427
vt 0.377210 0.011929
vt 0.377210 0.238071
vt 0.383495 0.250003
vt 0.375003 0.250007
vt 0.375000 0.250007
vt 0.375008 1.000000
vt 0.441977 1.000000
vt 0.625000 1.000000
vt 0.375009 1.000000
vt 0.125000 0.500007
vt 0.249999 0.500002
vt 0.249999 0.749998
vt 0.125000 0.749993
vt 0.375003 0.875002
vt 0.624999 0.875000
vt 0.667186 0.873428
vt 0.441983 0.999997
vt 0.375006 0.999998
vt 0.624662 0.250000
vt 0.441977 0.250000
vt 0.375008 0.250000
vt 0.375009 0.250000
vt 0.375006 0.250002
vt 0.441983 0.250003
vt 0.667186 0.376572
vt 0.624999 0.375000
vt 0.375003 0.374998
vt 0.125000 0.500007
vt 0.624999 0.375000
vt 0.667186 0.376572
vt 0.441983 0.250003
vt 0.667192 0.873418
vt 0.667192 0.376582
vt 0.750000 0.500002
vt 0.750000 0.749998
vt 0.375006 0.999998
vt 0.624999 0.875000
vt 0.375009 1.000000
vt 0.383512 0.000000
vt 0.625000 0.000000
vt 0.627209 0.011929
vt 0.377221 0.011929
vt 0.383512 1.000000
vt 0.625000 0.250000
vt 0.375009 0.250000
vt 0.383512 0.250000
vt 0.377221 0.238071
vt 0.627209 0.238071
vt 0.625000 0.999980
vt 0.625000 0.251488
vt 0.625000 0.255675
vt 0.625000 0.253990
vt 0.625000 0.256460
vt 0.625000 0.942021
vt 0.625000 0.964198
vt 0.625000 0.991488
vt 0.625000 0.998510
vt 0.625000 0.019324
vt 0.625000 0.011929
vt 0.625000 0.256441
vt 0.625000 0.998529
vt 0.624831 1.000000
vt 0.625000 1.000000
vt 0.625000 1.000000
vt 0.625000 1.000000
vt 0.625000 1.000000
vt 0.625000 0.991513
vt 0.625000 0.251471
vt 0.625000 0.250000
vt 0.625000 0.250000
vt 0.625000 0.250000
vt 0.625000 0.250000
vt 0.625000 0.250000
vt 0.625000 0.253976
vt 0.625000 0.255659
vt 0.667833 0.896325
vt 0.657870 0.932026
vt 0.624999 0.992141
vt 0.624998 1.049626
vt 0.624998 1.013410
vt 0.624999 1.000007
vt 0.620170 0.999998
vt 0.666537 0.353652
vt 0.667840 0.896316
vt 0.625001 1.013398
vt 0.648188 0.237240
vt 0.625000 0.250020
vt 0.625000 0.999980
vt 0.625000 0.250020
vt 0.625000 0.999980
vt 0.652502 0.317859
vt 0.657877 0.932013
vt 0.625000 0.257872
vt 0.625000 0.992128
vt 0.642273 0.200830
vt 0.625000 1.049620
vt 0.642268 0.200824
vt 0.624999 0.257859
vt 0.652497 0.317846
vt 0.666530 0.353643
vt 0.620170 0.250002
vt 0.625000 0.250020
vt 0.625000 0.999980
vt 0.625000 0.250020
vt 0.625000 0.250020
vt 0.625000 0.999980
vt 0.625000 0.250020
vt 0.375000 0.250007
vt 0.375003 0.250007
vt 0.383495 0.250003
vt 0.383495 0.000429
vt 0.375003 0.999589
vt 0.624662 1.000000
vt 0.441977 1.000000
vt 0.375009 1.000000
vt 0.375009 0.250000
vt 0.377221 0.238071
vt 0.625000 0.998510
vt 0.625000 0.991488
vt 0.625000 0.964198
vt 0.625000 0.942021
vt 0.625000 0.256460
vt 0.625000 0.253990
vt 0.625000 0.251488
vt 0.625000 0.250020
vt 0.625000 0.256441
vt 0.625000 0.998529
vt 0.625000 1.000000
vt 0.625000 1.000000
vt 0.625000 1.000000
vt 0.625000 0.991510
vt 0.625000 0.251471
vt 0.625000 0.250000
vt 0.625000 0.250000
vt 0.624831 0.250000
vt 0.624998 1.013409
vt 0.624998 1.049626
vt 0.624999 0.992141
vt 0.657870 0.932026
vt 0.667833 0.896325
vt 0.666537 0.353652
vt 0.625000 0.250020
vt 0.625000 0.257872
vt 0.642273 0.200830
vt 0.666529 0.353643
vt 0.652497 0.317846
vt 0.624999 0.257859
vt 0.642268 0.200824
vt 0.648170 0.237228
s 0
usemtl Crossguard_and_Pommel
f 9/1/1 10/4/1 20/3/1 15/2/1
f 10/4/2 11/6/2 19/5/2 20/3/2
f 11/6/3 12/8/3 18/7/3 19/5/3
f 12/8/4 13/10/4 17/9/4 18/7/4
f 13/10/5 14/12/5 16/11/5 17/9/5
f 9/1/6 15/2/6 5/14/6 1/13/6
f 29/1/7 35/2/7 40/3/7 30/4/7
f 30/4/8 40/3/8 39/5/8 31/6/8
f 31/6/9 39/5/9 38/7/9 32/8/9
f 32/8/10 38/7/10 37/9/10 33/10/10
f 33/10/11 37/9/11 36/11/11 34/12/11
f 29/1/12 21/13/12 25/14/12 35/2/12
f 77/15/13 73/17/13 74/16/13
f 74/18/14 73/17/14 78/19/14
f 128/20/15 124/22/15 125/21/15
f 125/23/16 124/25/16 129/24/16
f 42/26/17 51/35/17 52/34/17 53/33/17 54/32/17 48/31/17 49/30/17 50/29/17 47/28/17 41/27/17
f 41/36/18 47/39/18 66/38/18 67/37/18
f 42/40/19 41/43/19 45/42/19 43/41/19
f 45/44/20 41/48/20 67/47/20 64/46/20 46/45/20
f 77/49/21 51/52/21 42/51/21 76/50/21
f 42/53/22 43/57/22 44/56/22 75/55/22 76/54/22
f 97/58/23 43/41/23 45/42/23 96/43/23
f 97/53/24 127/61/24 126/60/24 44/59/24 43/57/24
f 115/62/25 46/65/25 44/64/25 126/63/25
f 64/62/26 75/63/26 44/64/26 46/65/26
f 45/44/27 46/67/27 115/46/27 118/47/27 96/66/27
f 47/39/28 50/68/28 2/38/28 66/38/28
f 49/69/29 48/72/29 4/71/29 3/70/29
f 48/72/30 14/12/30 13/10/30 12/8/30 11/6/30 10/4/30 9/1/30 1/13/30 4/71/30
f 50/68/31 49/73/31 3/38/31 2/38/31
f 77/74/32 8/74/32 52/75/32 51/52/32
f 8/74/33 7/74/33 53/76/33 52/75/33
f 7/74/34 6/78/34 54/77/34 53/76/34
f 6/78/35 5/14/35 15/2/35 20/3/35 19/5/35 18/7/35 17/9/35 16/11/35 54/32/35
f 56/79/36 59/87/36 58/86/36 57/85/36 55/84/36 60/83/36 63/82/36 62/81/36 61/80/36 89/74/36
f 55/88/37 57/89/37 4/71/37 1/13/37
f 5/14/38 60/90/38 55/88/38 1/13/38
f 59/91/39 56/38/39 66/38/39 2/38/39
f 66/92/40 56/38/40 88/94/40 87/96/40 86/94/40 85/95/40 84/38/40 83/94/40 65/93/40
f 57/89/41 58/70/41 3/70/41 4/71/41
f 58/97/42 59/91/42 2/38/42 3/38/42
f 89/74/43 61/98/43 8/74/43 77/74/43
f 74/99/44 90/100/44 95/103/44 94/102/44 93/101/44 92/74/44 91/100/44 89/74/44 77/74/44
f 63/104/45 60/90/45 5/14/45 6/78/45
f 61/98/46 62/105/46 7/74/46 8/74/46
f 62/105/47 63/104/47 6/78/47 7/74/47
f 64/46/48 67/47/48 66/112/48 65/111/48 72/110/48 71/109/48 70/108/48 69/107/48 68/106/48
f 64/62/49 68/114/49 82/113/49 75/63/49
f 72/115/50 65/118/50 74/117/50 78/116/50
f 65/118/51 83/120/51 90/119/51 74/117/51
f 68/114/52 69/122/52 81/121/52 82/113/52
f 69/122/53 70/124/53 80/123/53 81/121/53
f 70/124/54 71/126/54 79/125/54 80/123/54
f 71/126/55 72/115/55 78/116/55 79/125/55
f 73/17/56 77/131/56 76/54/56 75/55/56 82/130/56 81/129/56 80/128/56 79/127/56 78/19/56
f 83/120/57 84/79/57 95/132/57 90/119/57
f 88/133/58 56/79/58 89/132/58 91/134/58
f 84/79/59 85/136/59 94/135/59 95/132/59
f 85/136/60 86/133/60 93/137/60 94/135/60
f 86/133/61 87/133/61 92/137/61 93/137/61
f 87/133/62 88/133/62 91/134/62 92/137/62
f 14/12/63 48/31/63 54/32/63 16/11/63
f 97/26/64 96/27/64 98/28/64 101/142/64 100/141/64 99/31/64 105/32/64 104/140/64 103/139/64 102/138/64
f 96/36/65 118/144/65 117/143/65 98/39/65
f 128/74/66 127/50/66 97/51/66 102/52/66
f 98/39/67 117/38/67 22/38/67 101/145/67
f 100/69/68 23/70/68 24/71/68 99/72/68
f 99/31/69 24/71/69 21/13/69 29/1/69 30/4/69 31/6/69 32/8/69 33/10/69 34/12/69
f 101/145/70 22/38/70 23/38/70 100/73/70
f 128/74/71 102/52/71 103/146/71 28/74/71
f 28/74/72 103/146/72 104/76/72 27/74/72
f 27/74/73 104/76/73 105/147/73 26/78/73
f 26/78/74 105/147/74 36/11/74 37/9/74 38/7/74 39/5/74 40/3/74 35/2/74 25/14/74
f 107/38/75 140/155/75 112/154/75 113/81/75 114/153/75 111/152/75 106/151/75 108/150/75 109/149/75 110/148/75
f 106/88/76 21/13/76 24/71/76 108/89/76
f 25/14/77 21/13/77 106/88/77 111/156/77
f 110/157/78 22/38/78 117/38/78 107/38/78
f 117/38/40 116/160/40 134/38/40 135/95/40 136/95/40 137/159/40 138/159/40 139/158/40 107/38/40
f 108/89/79 24/71/79 23/70/79 109/70/79
f 109/161/80 23/38/80 22/38/80 110/157/80
f 140/74/81 128/74/81 28/74/81 112/162/81
f 124/99/44 128/165/44 140/74/44 142/164/44 143/102/44 144/100/44 145/103/44 146/74/44 141/163/44
f 114/104/82 26/78/82 25/14/82 111/156/82
f 112/162/83 28/74/83 27/74/83 113/105/83
f 113/105/84 27/74/84 26/78/84 114/104/84
f 115/46/85 119/170/85 120/169/85 121/168/85 122/167/85 123/166/85 116/111/85 117/112/85 118/47/85
f 115/62/86 126/63/86 133/171/86 119/114/86
f 123/115/87 129/116/87 124/172/87 116/118/87
f 116/118/88 124/172/88 141/119/88 134/120/88
f 119/114/89 133/171/89 132/121/89 120/122/89
f 120/122/90 132/121/90 131/173/90 121/124/90
f 121/124/91 131/173/91 130/174/91 122/126/91
f 122/126/92 130/174/92 129/116/92 123/115/92
f 125/17/93 129/179/93 130/178/93 131/177/93 132/176/93 133/175/93 126/60/93 127/61/93 128/131/93
f 134/120/94 141/119/94 146/132/94 135/79/94
f 139/136/95 142/134/95 140/155/95 107/79/95
f 135/79/96 146/132/96 145/135/96 136/136/96
f 136/136/97 145/135/97 144/137/97 137/133/97
f 137/133/98 144/137/98 143/137/98 138/133/98
f 138/133/99 143/137/99 142/134/99 139/136/99
f 34/12/100 36/11/100 105/32/100 99/31/100
o Blade
v -0.210000 -3.019798 0.004560
v 0.210000 -3.019798 0.004560
v -0.120000 7.334784 0.001440
v 0.120000 6.975049 0.002400
v 0.000000 7.568932 -0.000000
v -0.438132 -1.999691 0.009062
v -0.332800 -2.676013 0.007016
v -0.101587 -2.347903 0.057816
v -0.428364 -2.217756 0.008897
v -0.389810 -2.465306 0.008148
v 0.210000 -3.019798 0.022800
v -0.210000 -3.019798 0.022800
v 0.438132 -1.999691 0.009062
v 0.332800 -2.676013 0.007016
v 0.101587 -2.347903 0.031896
v 0.428364 -2.217756 0.008897
v 0.389810 -2.465306 0.008148
v 0.000000 -1.999691 0.045311
v 0.000000 -2.347903 0.044856
v 0.000000 -3.019798 0.022800
v 0.020624 7.465316 0.004056
v -0.031772 7.474227 0.004056
v 0.063520 -1.999960 0.047156
v -0.044593 -1.999459 0.047156
v -0.210000 -3.019798 -0.004560
v 0.210000 -3.019798 -0.004560
v -0.120000 7.334784 -0.001440
v 0.120000 6.975049 -0.002400
v -0.438132 -1.999691 -0.009062
v -0.332800 -2.676013 -0.007016
v -0.101587 -2.347903 -0.057816
v -0.428364 -2.217756 -0.008897
v -0.389810 -2.465306 -0.008148
v 0.210000 -3.019798 -0.022800
v -0.210000 -3.019798 -0.022800
v 0.438132 -1.999691 -0.009062
v 0.332800 -2.676013 -0.007016
v 0.101587 -2.347903 -0.031896
v 0.428364 -2.217756 -0.008897
v 0.389810 -2.465306 -0.008148
v 0.000000 -1.999691 -0.045311
v 0.000000 -2.347903 -0.044856
v 0.000000 -3.019798 -0.022800
v 0.020624 7.465316 -0.004056
v -0.031772 7.474227 -0.004056
v 0.063520 -1.999960 -0.047156
v -0.044593 -1.999459 -0.047156
vn -0.1510 -0.0075 0.9885
vn -0.1588 -0.0277 0.9869
vn -0.1513 -0.0462 0.9874
vn 0.0718 -0.0040 0.9974
vn 0.0761 -0.0149 0.9970
vn 0.0720 -0.0248 0.9971
vn 0.0645 -0.0302 0.9975
vn -0.1375 -0.0562 0.9889
vn 0.0714 0.0046 0.9974
vn -0.0644 0.0045 0.9979
vn 0.9767 0.1977 0.0840
vn 0.0400 0.0047 0.9992
vn -0.0369 0.0046 0.9993
vn -0.2017 0.1093 0.9733
vn 0.1012 0.0043 0.9949
vn -0.0963 0.0041 0.9953
vn -0.0507 0.0388 0.9980
vn 0.1066 -0.0319 0.9938
vn 0.0413 -0.0013 0.9991
vn -0.0290 -0.0013 0.9996
vn -0.0169 -0.0546 0.9984
vn 0.0415 -0.0198 0.9989
vn -0.1510 -0.0075 -0.9885
vn -0.1588 -0.0277 -0.9869
vn -0.1513 -0.0462 -0.9874
vn 0.0718 -0.0040 -0.9974
vn 0.0761 -0.0149 -0.9970
vn 0.0720 -0.0248 -0.9971
vn 0.0645 -0.0302 -0.9975
vn -0.1375 -0.0562 -0.9889
vn 0.0714 0.0046 -0.9974
vn -0.0644 0.0045 -0.9979
vn 0.9767 0.1977 -0.0840
vn 0.0400 0.0047 -0.9992
vn -0.0369 0.0046 -0.9993
vn -0.2017 0.1093 -0.9733
vn 0.1012 0.0043 -0.9949
vn -0.0963 0.0041 -0.9953
vn -0.0507 0.0388 -0.9980
vn 0.1066 -0.0319 -0.9938
vn 0.0413 -0.0013 -0.9991
vn -0.0290 -0.0013 -0.9996
vn -0.0169 -0.0546 -0.9984
vn 0.0415 -0.0198 -0.9989
vn -0.9994 0.0341 -0.0000
vn -0.9990 -0.0447 -0.0000
vn -0.9881 -0.1539 -0.0000
vn -0.9653 -0.2612 -0.0000
vn -0.9417 -0.3364 -0.0000
vn 0.9994 0.0354 -0.0000
vn 0.9990 -0.0447 -0.0000
vn 0.9881 -0.1539 -0.0000
vn 0.9653 -0.2612 -0.0000
vn 0.9417 -0.3364 -0.0000
vt 0.380994 0.001379
vt 0.375000 0.006429
vt 0.375000 0.000000
vt 0.375000 0.750000
vt 0.000000 0.000000
s 0
usemtl Dark_Steel
f 152/180/101 155/181/101 154/182/101
f 155/181/102 156/182/102 154/182/102
f 156/182/103 153/182/103 154/182/103
f 159/180/104 161/182/104 162/181/104
f 162/181/105 161/182/105 163/182/105
f 163/182/106 161/182/106 160/182/106
f 161/182/107 148/183/107 160/182/107
f 153/182/108 147/182/108 154/182/108
f 164/184/109 151/184/109 168/184/109 170/184/109
f 169/184/110 167/184/110 151/184/110 164/184/110
f 150/184/111 151/184/111 167/184/111
f 167/184/112 169/184/112 150/184/112
f 168/184/113 149/184/113 170/184/113
f 151/184/114 149/184/114 168/184/114
f 150/184/115 169/184/115 159/184/115
f 149/184/116 152/184/116 170/184/116
f 154/182/117 165/184/117 170/184/117 152/184/117
f 161/182/118 159/184/118 169/184/118 165/184/118
f 165/184/119 164/184/119 170/184/119
f 169/184/120 164/184/120 165/184/120
f 165/184/121 154/182/121 147/182/121 166/184/121
f 165/184/122 166/184/122 157/184/122 161/182/122
f 175/180/123 177/182/123 178/181/123
f 178/181/124 177/182/124 179/182/124
f 179/182/125 177/182/125 176/182/125
f 182/180/126 185/181/126 184/182/126
f 185/181/127 186/182/127 184/182/127
f 186/182/128 183/182/128 184/182/128
f 184/182/129 183/182/129 172/183/129
f 176/182/130 177/182/130 171/182/130
f 187/184/131 193/184/131 191/184/131 151/184/131
f 192/184/132 187/184/132 151/184/132 190/184/132
f 174/184/133 190/184/133 151/184/133
f 190/184/134 174/184/134 192/184/134
f 191/184/135 193/184/135 173/184/135
f 151/184/136 191/184/136 173/184/136
f 174/184/137 182/184/137 192/184/137
f 173/184/138 193/184/138 175/184/138
f 177/182/139 175/184/139 193/184/139 188/184/139
f 184/182/140 188/184/140 192/184/140 182/184/140
f 188/184/141 193/184/141 187/184/141
f 192/184/142 188/184/142 187/184/142
f 188/184/143 189/184/143 171/182/143 177/182/143
f 188/184/144 184/182/144 180/184/144 189/184/144
f 149/184/145 173/184/145 175/184/145 152/184/145
f 155/181/146 152/184/146 175/180/146 178/181/146
f 156/182/147 155/181/147 178/181/147 179/182/147
f 153/182/148 156/182/148 179/182/148 176/182/148
f 153/182/149 176/182/149 171/182/149 147/182/149
f 159/184/150 182/184/150 174/184/150 150/184/150
f 162/181/151 185/181/151 182/180/151 159/184/151
f 163/182/152 186/182/152 185/181/152 162/181/152
f 160/182/153 183/182/153 186/182/153 163/182/153
f 160/182/154 157/184/154 180/184/154 183/182/154
l 166 148
l 157 158
l 189 172
l 180 181
o Handle
v -0.165750 -4.781524 0.112500
v -0.195000 -4.799867 0.095625
v -0.180295 -4.790413 0.110246
v -0.191032 -4.797146 0.104051
v -0.221000 -3.300150 0.150000
v -0.221000 -3.150150 0.127500
v -0.260000 -3.300150 0.127500
v -0.221000 -3.225248 0.146994
v -0.240474 -3.300150 0.146994
v -0.239650 -3.228418 0.144074
v -0.240474 -3.170189 0.127500
v -0.221000 -3.170189 0.138735
v -0.239650 -3.189655 0.138260
v -0.254790 -3.300150 0.138735
v -0.254790 -3.225248 0.127500
v -0.249729 -3.228418 0.138260
v -0.195000 -4.799867 -0.095625
v -0.165750 -4.781524 -0.112500
v -0.191032 -4.797146 -0.104051
v -0.180295 -4.790413 -0.110246
v -0.221000 -3.150150 -0.127500
v -0.221000 -3.300150 -0.150000
v -0.260000 -3.300150 -0.127500
v -0.221000 -3.170189 -0.138735
v -0.240474 -3.170189 -0.127500
v -0.239650 -3.189655 -0.138260
v -0.240474 -3.300150 -0.146994
v -0.221000 -3.225248 -0.146994
v -0.239650 -3.228418 -0.144074
v -0.254790 -3.225248 -0.127500
v -0.254790 -3.300150 -0.138735
v -0.249729 -3.228418 -0.138260
v 0.195000 -4.711439 0.095625
v 0.165750 -4.727210 0.112500
v 0.191032 -4.713346 0.104051
v 0.180295 -4.719135 0.110246
v 0.221000 -3.150150 0.127500
v 0.221000 -3.300150 0.150000
v 0.260000 -3.300150 0.127500
v 0.221000 -3.170189 0.138735
v 0.240474 -3.170189 0.127500
v 0.239650 -3.189655 0.138260
v 0.240474 -3.300150 0.146994
v 0.221000 -3.225248 0.146994
v 0.239650 -3.228418 0.144074
v 0.254790 -3.225248 0.127500
v 0.254790 -3.300150 0.138735
v 0.249729 -3.228418 0.138260
v 0.165750 -4.727210 -0.112500
v 0.195000 -4.711439 -0.095625
v 0.180295 -4.719135 -0.110246
v 0.191032 -4.713346 -0.104051
v 0.221000 -3.150150 -0.127500
v 0.260000 -3.300150 -0.127500
v 0.221000 -3.300150 -0.150000
v 0.240474 -3.170189 -0.127500
v 0.221000 -3.170189 -0.138735
v 0.239650 -3.189655 -0.138260
v 0.254790 -3.300150 -0.138735
v 0.254790 -3.225248 -0.127500
v 0.249729 -3.228418 -0.138260
v 0.221000 -3.225248 -0.146994
v 0.240474 -3.300150 -0.146994
v 0.239650 -3.228418 -0.144074
vn -0.1568 0.0408 0.9868
vn -0.1772 0.1460 0.9733
vn -0.4519 0.4267 0.7834
vn -0.8554 0.2224 0.4679
vn -0.9006 0.0645 0.4299
vn -0.4993 0.0410 0.8655
vn -0.4956 0.1288 0.8590
vn -0.4519 0.4267 -0.7834
vn -0.1772 0.1460 -0.9733
vn -0.1568 0.0408 -0.9868
vn -0.4993 0.0410 -0.8655
vn -0.9006 0.0645 -0.4299
vn -0.8554 0.2224 -0.4679
vn -0.4956 0.1288 -0.8590
vn 0.4519 0.4267 0.7834
vn 0.1772 0.1460 0.9733
vn 0.1568 0.0408 0.9868
vn 0.4993 0.0410 0.8655
vn 0.9006 0.0645 0.4299
vn 0.8554 0.2224 0.4679
vn 0.4956 0.1288 0.8590
vn 0.2192 -0.9757 -0.0000
vn 0.4519 0.4267 -0.7834
vn 0.8554 0.2224 -0.4679
vn 0.9006 0.0645 -0.4299
vn 0.4993 0.0410 -0.8655
vn 0.1568 0.0408 -0.9868
vn 0.1772 0.1460 -0.9733
vn 0.4956 0.1288 -0.8590
vn -0.7171 0.6969 -0.0000
vn -0.9678 0.2516 -0.0000
vn -0.9976 0.0694 -0.0000
vn -0.0000 0.4890 -0.8723
vn -0.0000 0.1483 -0.9889
vn -0.0000 0.0401 -0.9992
vn 0.7171 0.6969 -0.0000
vn 0.9678 0.2516 -0.0000
vn 0.9976 0.0694 -0.0000
vn -0.0000 0.4890 0.8723
vn -0.0000 0.1483 0.9889
vn -0.0000 0.0401 0.9992
vn -0.0000 1.0000 -0.0000
vn -0.0000 -1.0000 -0.0000
vn 0.0018 -0.0258 0.9997
vn 0.9991 0.0433 -0.0000
vn -0.1450 -0.0303 0.9890
vn -0.4910 -0.0412 0.8702
vn -0.9025 -0.0483 0.4280
vn 0.1602 -0.0322 0.9866
vn 0.5068 -0.0439 0.8609
vn 0.9068 -0.0512 0.4184
vn 0.9989 -0.0460 -0.0000
vn -0.0018 0.0258 0.9997
vn 0.9068 -0.0512 -0.4184
vn 0.5068 -0.0439 -0.8609
vn -0.1602 0.0322 0.9866
vn 0.1450 0.0303 0.9890
vn 0.4910 0.0412 0.8702
vn 0.9025 0.0483 0.4280
vt 0.605633 0.981250
vt 0.615224 0.981250
vt 0.615216 1.000000
vt 0.606250 1.000000
vt 0.625000 0.981250
vt 0.625000 1.000000
vt 0.856250 0.731250
vt 0.875000 0.731250
vt 0.875000 0.740216
vt 0.856250 0.750000
vt 0.625000 0.018750
vt 0.615613 0.018750
vt 0.615216 0.009784
vt 0.625000 0.009784
vt 0.606250 0.018750
vt 0.606250 0.009387
vt 0.606250 0.000000
vt 0.615216 0.000000
vt 0.856250 0.518750
vt 0.856250 0.500000
vt 0.875000 0.509784
vt 0.875000 0.518750
vt 0.625000 0.268750
vt 0.615224 0.268750
vt 0.614993 0.256103
vt 0.625000 0.243478
vt 0.605633 0.268750
vt 0.605862 0.259387
vt 0.606250 0.240613
vt 0.615216 0.240216
vt 0.606250 0.231250
vt 0.615613 0.231250
vt 0.625000 0.231250
vt 0.643750 0.731250
vt 0.634375 0.759375
vt 0.629892 0.754892
vt 0.634387 0.731250
vt 0.614360 0.768750
vt 0.613794 0.759784
vt 0.603575 0.768750
vt 0.603323 0.759387
vt 0.602899 0.740613
vt 0.613520 0.743897
vt 0.602899 0.731250
vt 0.613935 0.731250
vt 0.394469 0.981250
vt 0.395326 0.000000
vt 0.394203 0.009387
vt 0.393750 0.018750
vt 0.393750 0.231250
vt 0.394204 0.240613
vt 0.394214 0.259426
vt 0.394469 0.268750
vt 0.396531 0.481250
vt 0.396758 0.490574
vt 0.396726 0.509387
vt 0.397101 0.518750
vt 0.397101 0.731250
vt 0.396726 0.740613
vt 0.396758 0.759426
vt 0.396531 0.768750
vt 0.643750 0.518750
vt 0.634387 0.518750
vt 0.629892 0.495108
vt 0.634375 0.490625
vt 0.613935 0.518750
vt 0.613520 0.506103
vt 0.602899 0.518750
vt 0.602899 0.509387
vt 0.603323 0.490613
vt 0.613794 0.490216
vt 0.603575 0.481250
vt 0.614360 0.481250
vt 0.000000 0.000000
s 0
usemtl Handle
f 198/185/155 201/186/155 203/187/155 202/188/155
f 201/186/156 205/189/156 206/190/156 203/187/156
f 199/191/157 204/192/157 206/193/157 205/194/157
f 204/195/158 208/196/158 209/197/158 206/198/158
f 200/199/159 207/200/159 209/197/159 208/196/159
f 207/200/160 202/201/160 203/202/160 209/197/160
f 203/202/161 206/198/161 209/197/161
f 214/203/162 217/204/162 219/205/162 218/206/162
f 217/207/163 221/208/163 222/209/163 219/210/163
f 215/211/164 220/212/164 222/209/164 221/208/164
f 220/212/165 224/213/165 225/214/165 222/209/165
f 216/215/166 223/216/166 225/214/166 224/213/166
f 223/216/167 218/217/167 219/210/167 225/214/167
f 219/210/168 222/209/168 225/214/168
f 230/218/169 233/219/169 235/220/169 234/221/169
f 233/219/170 237/222/170 238/223/170 235/220/170
f 231/224/171 236/225/171 238/223/171 237/222/171
f 236/225/172 240/226/172 241/227/172 238/223/172
f 232/228/173 239/229/173 241/227/173 240/226/173
f 239/229/174 234/221/174 235/220/174 241/227/174
f 235/220/175 238/223/175 241/227/175
f 194/230/176 196/231/176 197/232/176 195/233/176 210/234/176 212/235/176 213/236/176 211/237/176 242/238/176 244/239/176 245/240/176 243/241/176 226/242/176 228/243/176 229/244/176 227/245/176
f 246/246/177 249/247/177 251/248/177 250/249/177
f 249/247/178 253/250/178 254/251/178 251/248/178
f 247/252/179 252/253/179 254/251/179 253/250/179
f 252/253/180 256/254/180 257/255/180 254/251/180
f 248/256/181 255/257/181 257/255/181 256/254/181
f 255/257/182 250/249/182 251/248/182 257/255/182
f 251/248/183 254/251/183 257/255/183
f 199/191/184 214/203/184 218/206/184 204/192/184
f 204/195/185 218/217/185 223/216/185 208/196/185
f 208/196/186 223/216/186 216/215/186 200/199/186
f 214/203/187 246/246/187 250/249/187 217/204/187
f 217/207/188 250/249/188 255/257/188 221/208/188
f 221/208/189 255/257/189 248/256/189 215/211/189
f 246/246/190 230/218/190 234/221/190 249/247/190
f 249/247/191 234/221/191 239/229/191 253/250/191
f 253/250/192 239/229/192 232/228/192 247/252/192
f 230/218/193 199/191/193 205/194/193 233/219/193
f 233/219/194 205/189/194 201/186/194 237/222/194
f 237/222/195 201/186/195 198/185/195 231/224/195
f 246/246/196 214/203/196 199/191/196 230/218/196
f 202/201/197 207/200/197 200/199/197 216/215/197 224/213/197 220/212/197 215/211/197 248/256/197 256/254/197 252/253/197 247/252/197 232/228/197 240/226/197 236/225/197 231/224/197 198/185/197
f 231/224/198 198/185/198 194/230/198 227/245/198
f 216/215/199 200/199/199 195/233/199 210/234/199
f 198/185/200 202/201/200 196/231/200 194/230/200
f 207/200/201 197/232/201 196/231/201 202/201/201
f 207/200/202 200/199/202 195/233/202 197/232/202
f 229/258/203 236/258/203 231/258/203 227/258/203
f 228/258/204 240/258/204 236/258/204 229/258/204
f 226/258/205 232/258/205 240/258/205 228/258/205
f 247/252/206 232/228/206 226/258/206 243/241/206
f 248/256/207 215/211/207 211/237/207 242/238/207
f 245/258/208 252/258/208 247/258/208 243/258/208
f 244/258/209 256/258/209 252/258/209 245/258/209
f 248/258/210 242/258/210 244/258/210 256/258/210
f 220/258/211 213/258/211 211/258/211 215/258/211
f 224/258/212 212/258/212 213/258/212 220/258/212
f 216/258/213 210/258/213 212/258/213 224/258/213
o Pommel
v 0.187310 -5.400623 -0.056149
v 0.190027 -5.406339 0.057937
v -0.187310 -5.400623 -0.056149
v -0.190027 -5.406339 0.057937
v -0.173115 -4.732751 -0.170647
v 0.173115 -4.732751 -0.170647
v -0.122411 -4.734852 -0.174850
v -0.063364 -4.736173 -0.177491
v 0.000000 -4.736623 -0.178392
v 0.063364 -4.736173 -0.177491
v 0.122411 -4.734852 -0.174850
v 0.171114 -4.954717 -0.138537
v -0.171114 -4.954717 -0.138537
v 0.120996 -4.954717 -0.145882
v 0.062632 -4.954717 -0.150498
v 0.000000 -4.954717 -0.152073
v -0.062632 -4.954717 -0.150498
v -0.120996 -4.954717 -0.145882
v 0.170856 -5.156548 -0.123894
v -0.170856 -5.156548 -0.123894
v 0.120813 -5.156548 -0.131531
v 0.062538 -5.156548 -0.136332
v 0.000000 -5.156548 -0.137969
v -0.062538 -5.156548 -0.136332
v -0.120813 -5.156548 -0.131531
v -0.171075 -5.412055 -0.063878
v 0.171075 -5.412055 -0.063878
v -0.000000 -5.580517 -0.052976
v -0.120968 -5.412055 -0.071249
v -0.062618 -5.412055 -0.075882
v 0.000000 -5.412055 -0.077462
v 0.062618 -5.412055 -0.075882
v 0.120968 -5.412055 -0.071249
v 0.195040 -4.731567 0.168279
v -0.195040 -4.731567 0.168279
v 0.137914 -4.733934 0.173014
v 0.071389 -4.735422 0.175990
v 0.000000 -4.735929 0.177005
v -0.071389 -4.735422 0.175990
v -0.137914 -4.733934 0.173014
v -0.192786 -4.954717 0.134399
v 0.192786 -4.954717 0.134399
v -0.136320 -4.954717 0.142673
v -0.070565 -4.954717 0.147875
v -0.000000 -4.954717 0.149649
v 0.070565 -4.954717 0.147875
v 0.136320 -4.954717 0.142673
v -0.192496 -5.156548 0.119590
v 0.192496 -5.156548 0.119590
v -0.136115 -5.156548 0.128194
v -0.070458 -5.156548 0.133603
v 0.000000 -5.156548 0.135448
v 0.070458 -5.156548 0.133603
v 0.136115 -5.156548 0.128194
v -0.000000 -5.601856 0.047441
v 0.136290 -5.412055 0.068028
v 0.070549 -5.412055 0.073249
v 0.000000 -5.412055 0.075029
v -0.070549 -5.412055 0.073249
v -0.136290 -5.412055 0.068028
v -0.000000 -4.559551 0.047123
v 0.280671 -5.160025 -0.090481
v 0.273448 -5.157279 -0.096319
v 0.279521 -5.158986 -0.092281
v 0.277744 -5.158099 -0.094023
v 0.275611 -5.157499 -0.095441
v 0.347670 -4.941806 -0.097624
v 0.357799 -4.961931 -0.089841
v 0.356920 -4.972295 -0.090492
v 0.351218 -4.964812 -0.096212
v 0.350263 -4.946325 -0.096025
v 0.353099 -4.951737 -0.093985
v 0.348756 -4.947255 -0.097717
v 0.351522 -4.952508 -0.095914
v 0.354027 -4.957011 -0.094116
v 0.354670 -4.961776 -0.094183
v 0.358019 -4.964330 -0.090206
v 0.357929 -4.967143 -0.090458
v 0.355745 -4.957217 -0.091813
v 0.356100 -4.960924 -0.092189
v 0.356433 -4.964698 -0.092356
v 0.355954 -4.970734 -0.092280
v 0.354530 -4.968763 -0.093995
v 0.357544 -4.969939 -0.090558
v 0.356247 -4.967800 -0.092387
v 0.354743 -4.965524 -0.094121
v 0.350676 -4.959705 -0.096953
v 0.349811 -4.953540 -0.097481
v 0.352867 -4.966684 -0.095375
v 0.352775 -4.962545 -0.095596
v 0.352374 -4.957897 -0.095868
v -0.000000 -5.777297 -0.003414
v -0.000000 -5.777680 0.003622
v -0.000000 -5.779611 -0.001832
v -0.000000 -5.780497 0.000061
v -0.000000 -5.779819 0.001976
v 0.216842 -4.730390 -0.165925
v 0.225999 -4.729032 -0.161629
v 0.219152 -4.730199 -0.165423
v 0.221703 -4.729874 -0.164431
v 0.224108 -4.729465 -0.163099
v 0.296484 -4.706789 -0.078973
v 0.293647 -4.708273 -0.088366
v 0.296268 -4.706902 -0.081294
v 0.295653 -4.707223 -0.083894
v 0.294733 -4.707705 -0.086378
v 0.226428 -4.564178 -0.120339
v 0.227621 -4.574955 -0.126656
v 0.218820 -4.564579 -0.128057
v 0.219001 -4.559551 -0.121770
v 0.227228 -4.566442 -0.122008
v 0.227736 -4.569285 -0.123795
v 0.225166 -4.562407 -0.120667
v 0.225383 -4.564080 -0.122748
v 0.225675 -4.566165 -0.124624
v 0.223541 -4.563572 -0.125282
v 0.225852 -4.572474 -0.127528
v 0.223558 -4.569632 -0.128100
v 0.227874 -4.572274 -0.125427
v 0.225722 -4.569024 -0.126151
v 0.223568 -4.566319 -0.126809
v 0.218861 -4.562655 -0.127231
v 0.218910 -4.561024 -0.125747
v 0.221089 -4.566859 -0.128286
v 0.221256 -4.564301 -0.127033
v 0.221262 -4.562035 -0.125600
v 0.221146 -4.559903 -0.121442
v 0.223311 -4.560906 -0.121054
v 0.218959 -4.559934 -0.123829
v 0.221261 -4.560795 -0.123638
v 0.223444 -4.561956 -0.123286
v 0.273479 -5.157269 0.096402
v 0.280671 -5.160025 0.090481
v 0.275631 -5.157494 0.095492
v 0.277753 -5.158096 0.094047
v 0.279523 -5.158985 0.092287
v 0.351215 -4.964771 0.096244
v 0.356920 -4.972295 0.090492
v 0.357802 -4.961934 0.089834
v 0.347670 -4.941806 0.097624
v 0.352867 -4.966655 0.095396
v 0.354531 -4.968747 0.094004
v 0.350674 -4.959679 0.096973
v 0.352774 -4.962527 0.095608
v 0.354743 -4.965513 0.094127
v 0.354670 -4.961771 0.094186
v 0.357544 -4.969940 0.090557
v 0.357931 -4.967144 0.090454
v 0.355955 -4.970727 0.092283
v 0.356248 -4.967795 0.092389
v 0.356434 -4.964696 0.092356
v 0.355746 -4.957217 0.091809
v 0.353099 -4.951735 0.093983
v 0.358021 -4.964333 0.090201
v 0.356102 -4.960923 0.092187
v 0.354027 -4.957008 0.094117
v 0.348755 -4.947250 0.097720
v 0.349810 -4.953526 0.097491
v 0.350263 -4.946323 0.096025
v 0.351522 -4.952504 0.095916
v 0.352373 -4.957888 0.095874
v 0.226033 -4.729004 0.161684
v 0.216858 -4.730389 0.165923
v 0.224130 -4.729447 0.163133
v 0.221718 -4.729866 0.164447
v 0.219164 -4.730196 0.165427
v 0.293729 -4.708276 0.088425
v 0.296484 -4.706789 0.078965
v 0.294783 -4.707707 0.086414
v 0.295677 -4.707224 0.083909
v 0.296274 -4.706902 0.081294
v 0.226428 -4.564178 0.122259
v 0.219001 -4.559551 0.123760
v 0.218834 -4.564592 0.129991
v 0.227610 -4.574952 0.128463
v 0.225166 -4.562407 0.122603
v 0.223311 -4.560906 0.123009
v 0.227227 -4.566442 0.123902
v 0.225383 -4.564080 0.124671
v 0.223444 -4.561957 0.125236
v 0.223542 -4.563574 0.127221
v 0.218963 -4.559935 0.125814
v 0.218918 -4.561028 0.127720
v 0.221146 -4.559903 0.123415
v 0.221263 -4.560796 0.125607
v 0.221266 -4.562037 0.127559
v 0.221097 -4.566872 0.130193
v 0.223559 -4.569641 0.129974
v 0.218873 -4.562663 0.129187
v 0.221262 -4.564309 0.128969
v 0.223569 -4.566324 0.128719
v 0.227867 -4.572273 0.127260
v 0.227733 -4.569284 0.125659
v 0.225846 -4.572478 0.129367
v 0.225719 -4.569026 0.128026
v 0.225674 -4.566166 0.126528
v 0.312884 -5.059245 -0.096261
v 0.319793 -5.063700 -0.090490
v 0.314901 -5.060189 -0.095405
v 0.316922 -5.061368 -0.094008
v 0.318640 -5.062600 -0.092282
v 0.228359 -5.277517 -0.077377
v 0.235193 -5.282495 -0.071380
v 0.230306 -5.278341 -0.076353
v 0.232288 -5.279577 -0.074854
v 0.234004 -5.281035 -0.073108
v 0.319793 -5.063700 0.090490
v 0.312872 -5.059240 0.096309
v 0.318639 -5.062600 0.092286
v 0.316918 -5.061367 0.094023
v 0.314893 -5.060186 0.095435
v 0.235193 -5.282495 0.071380
v 0.233011 -5.278969 0.075526
v 0.234648 -5.281614 0.072417
v 0.234102 -5.280733 0.073453
v 0.233557 -5.279851 0.074490
v 0.222587 -5.466899 0.003631
v 0.222481 -5.466661 -0.003423
v 0.223246 -5.468122 0.001981
v 0.223458 -5.468507 0.000061
v 0.223189 -5.467994 -0.001837
v 0.318859 -5.212827 -0.004268
v 0.318855 -5.212821 0.004277
v 0.319439 -5.213627 -0.002309
v 0.319641 -5.213908 0.000003
v 0.319436 -5.213624 0.002316
v 0.398662 -5.016337 0.004286
v 0.398666 -5.016341 -0.004278
v 0.398398 -5.009035 -0.000000
v 0.399442 -5.016654 0.002320
v 0.399717 -5.016767 0.000002
v 0.399429 -5.014458 0.003599
v 0.399904 -5.014827 0.001742
v 0.400186 -5.015077 0.000002
v 0.400230 -5.013810 0.000002
v 0.399432 -5.014461 -0.003593
v 0.399650 -5.012413 -0.002540
v 0.399444 -5.016657 -0.002315
v 0.399906 -5.014828 -0.001737
v 0.400155 -5.013186 -0.001102
v 0.399286 -5.010506 0.001280
v 0.399648 -5.012410 0.002544
v 0.399287 -5.010507 -0.001278
v 0.399827 -5.011854 0.000001
v 0.400155 -5.013186 0.001105
v 0.270683 -5.339842 -0.003942
v 0.270677 -5.339834 0.003952
v 0.271318 -5.340869 -0.002132
v 0.271540 -5.341228 0.000003
v 0.271315 -5.340865 0.002140
v 0.359760 -5.112123 -0.004276
v 0.359756 -5.112119 0.004284
v 0.360367 -5.112859 -0.002313
v 0.360580 -5.113117 0.000002
v 0.360365 -5.112857 0.002319
v -0.273448 -5.157279 -0.096319
v -0.280671 -5.160025 -0.090481
v -0.275611 -5.157499 -0.095441
v -0.277744 -5.158099 -0.094023
v -0.279521 -5.158986 -0.092281
v -0.351218 -4.964812 -0.096212
v -0.356920 -4.972295 -0.090492
v -0.357799 -4.961931 -0.089841
v -0.347670 -4.941806 -0.097624
v -0.352867 -4.966684 -0.095375
v -0.354530 -4.968763 -0.093995
v -0.350676 -4.959705 -0.096953
v -0.352775 -4.962545 -0.095596
v -0.354743 -4.965524 -0.094121
v -0.354670 -4.961776 -0.094183
v -0.357544 -4.969939 -0.090558
v -0.357929 -4.967143 -0.090458
v -0.355954 -4.970734 -0.092280
v -0.356247 -4.967800 -0.092387
v -0.356433 -4.964698 -0.092356
v -0.355745 -4.957217 -0.091813
v -0.353099 -4.951736 -0.093985
v -0.358019 -4.964330 -0.090206
v -0.356100 -4.960924 -0.092189
v -0.354027 -4.957011 -0.094116
v -0.348756 -4.947255 -0.097717
v -0.349811 -4.953540 -0.097481
v -0.350263 -4.946325 -0.096025
v -0.351522 -4.952508 -0.095914
v -0.352374 -4.957897 -0.095868
v -0.225999 -4.729032 -0.161629
v -0.216842 -4.730390 -0.165925
v -0.224108 -4.729465 -0.163099
v -0.221703 -4.729874 -0.164431
v -0.219152 -4.730199 -0.165423
v -0.293647 -4.708273 -0.088366
v -0.296484 -4.706789 -0.078973
v -0.294733 -4.707705 -0.086378
v -0.295653 -4.707223 -0.083894
v -0.296268 -4.706902 -0.081294
v -0.226428 -4.564178 -0.120339
v -0.219001 -4.559551 -0.121770
v -0.218820 -4.564579 -0.128057
v -0.227621 -4.574955 -0.126656
v -0.225166 -4.562407 -0.120667
v -0.223311 -4.560906 -0.121054
v -0.227228 -4.566442 -0.122008
v -0.225383 -4.564080 -0.122748
v -0.223444 -4.561956 -0.123286
v -0.223541 -4.563572 -0.125282
v -0.218959 -4.559934 -0.123829
v -0.218910 -4.561024 -0.125747
v -0.221146 -4.559903 -0.121442
v -0.221261 -4.560795 -0.123638
v -0.221262 -4.562035 -0.125600
v -0.221089 -4.566859 -0.128286
v -0.223558 -4.569632 -0.128100
v -0.218861 -4.562655 -0.127231
v -0.221256 -4.564301 -0.127033
v -0.223568 -4.566319 -0.126809
v -0.227874 -4.572274 -0.125427
v -0.227736 -4.569285 -0.123795
v -0.225852 -4.572474 -0.127528
v -0.225722 -4.569024 -0.126151
v -0.225675 -4.566165 -0.124624
v -0.280671 -5.160025 0.090481
v -0.273479 -5.157269 0.096402
v -0.279523 -5.158985 0.092287
v -0.277753 -5.158096 0.094047
v -0.275631 -5.157494 0.095492
v -0.347670 -4.941806 0.097624
v -0.357802 -4.961934 0.089834
v -0.356920 -4.972295 0.090492
v -0.351215 -4.964771 0.096244
v -0.350263 -4.946323 0.096025
v -0.353099 -4.951735 0.093983
v -0.348755 -4.947250 0.097720
v -0.351522 -4.952504 0.095916
v -0.354027 -4.957008 0.094117
v -0.354670 -4.961771 0.094186
v -0.358021 -4.964333 0.090201
v -0.357931 -4.967144 0.090454
v -0.355746 -4.957217 0.091809
v -0.356102 -4.960923 0.092187
v -0.356434 -4.964696 0.092356
v -0.355955 -4.970727 0.092283
v -0.354531 -4.968747 0.094004
v -0.357544 -4.969940 0.090557
v -0.356248 -4.967795 0.092389
v -0.354743 -4.965513 0.094127
v -0.350674 -4.959679 0.096973
v -0.349810 -4.953526 0.097491
v -0.352867 -4.966655 0.095396
v -0.352774 -4.962527 0.095608
v -0.352373 -4.957888 0.095874
v -0.216858 -4.730389 0.165923
v -0.226033 -4.729004 0.161684
v -0.219164 -4.730196 0.165427
v -0.221718 -4.729866 0.164447
v -0.224130 -4.729447 0.163133
v -0.296484 -4.706789 0.078965
v -0.293728 -4.708276 0.088425
v -0.296274 -4.706902 0.081294
v -0.295677 -4.707224 0.083909
v -0.294783 -4.707707 0.086414
v -0.226428 -4.564178 0.122259
v -0.227610 -4.574952 0.128463
v -0.218834 -4.564592 0.129991
v -0.219001 -4.559551 0.123760
v -0.227227 -4.566442 0.123902
v -0.227733 -4.569284 0.125659
v -0.225166 -4.562407 0.122603
v -0.225383 -4.564080 0.124671
v -0.225674 -4.566166 0.126528
v -0.223542 -4.563574 0.127221
v -0.225846 -4.572478 0.129367
v -0.223559 -4.569641 0.129974
v -0.227867 -4.572273 0.127260
v -0.225719 -4.569026 0.128026
v -0.223569 -4.566324 0.128719
v -0.218873 -4.562663 0.129187
v -0.218918 -4.561028 0.127720
v -0.221097 -4.566872 0.130193
v -0.221262 -4.564309 0.128969
v -0.221266 -4.562037 0.127559
v -0.221146 -4.559903 0.123415
v -0.223311 -4.560906 0.123009
v -0.218963 -4.559935 0.125814
v -0.221263 -4.560796 0.125607
v -0.223444 -4.561957 0.125237
v -0.319793 -5.063700 -0.090490
v -0.312884 -5.059245 -0.096261
v -0.318640 -5.062600 -0.092282
v -0.316922 -5.061368 -0.094008
v -0.314901 -5.060189 -0.095405
v -0.235193 -5.282495 -0.071380
v -0.228359 -5.277517 -0.077377
v -0.234004 -5.281035 -0.073108
v -0.232288 -5.279577 -0.074854
v -0.230306 -5.278341 -0.076353
v -0.312872 -5.059240 0.096309
v -0.319793 -5.063700 0.090490
v -0.314893 -5.060186 0.095435
v -0.316918 -5.061367 0.094023
v -0.318639 -5.062600 0.092286
v -0.233011 -5.278969 0.075526
v -0.235193 -5.282495 0.071380
v -0.233557 -5.279851 0.074490
v -0.234102 -5.280733 0.073453
v -0.234648 -5.281614 0.072417
v -0.222481 -5.466661 -0.003423
v -0.222587 -5.466899 0.003631
v -0.223189 -5.467994 -0.001837
v -0.223458 -5.468507 0.000061
v -0.223246 -5.468122 0.001981
v -0.318855 -5.212821 0.004277
v -0.318859 -5.212827 -0.004268
v -0.319436 -5.213624 0.002316
v -0.319641 -5.213908 0.000003
v -0.319439 -5.213627 -0.002309
v -0.398662 -5.016337 0.004286
v -0.398398 -5.009035 0.000000
v -0.398666 -5.016341 -0.004278
v -0.399429 -5.014458 0.003599
v -0.399648 -5.012410 0.002544
v -0.399442 -5.016654 0.002320
v -0.399904 -5.014827 0.001742
v -0.400155 -5.013185 0.001105
v -0.400230 -5.013810 0.000002
v -0.399287 -5.010507 -0.001278
v -0.399650 -5.012413 -0.002540
v -0.399286 -5.010506 0.001280
v -0.399827 -5.011854 0.000001
v -0.400155 -5.013186 -0.001102
v -0.399444 -5.016657 -0.002315
v -0.399717 -5.016767 0.000002
v -0.399432 -5.014461 -0.003593
v -0.399906 -5.014828 -0.001737
v -0.400186 -5.015077 0.000002
v -0.270677 -5.339834 0.003952
v -0.270683 -5.339842 -0.003942
v -0.271315 -5.340865 0.002140
v -0.271540 -5.341228 0.000003
v -0.271318 -5.340869 -0.002132
v -0.359756 -5.112119 0.004284
v -0.359760 -5.112123 -0.004276
v -0.360365 -5.112857 0.002319
v -0.360580 -5.113117 0.000002
v -0.360367 -5.112859 -0.002313
v 0.168600 -4.559551 -0.121770
v 0.173728 -4.564549 -0.128186
v 0.170568 -4.559932 -0.123838
v 0.172234 -4.561015 -0.125784
v 0.173343 -4.562636 -0.127311
v -0.173728 -4.564549 -0.128186
v -0.168600 -4.559551 -0.121770
v -0.173343 -4.562636 -0.127311
v -0.172234 -4.561015 -0.125784
v -0.170568 -4.559932 -0.123838
v 0.116018 -4.564523 -0.128284
v 0.112400 -4.559551 -0.121770
v 0.115685 -4.562621 -0.127371
v 0.114881 -4.561007 -0.125813
v 0.113727 -4.559930 -0.123846
v 0.058068 -4.564507 -0.128343
v 0.056200 -4.559551 -0.121770
v 0.057879 -4.562611 -0.127408
v 0.057458 -4.561003 -0.125830
v 0.056868 -4.559928 -0.123850
v 0.000000 -4.564501 -0.128363
v 0.000000 -4.559551 -0.121770
v 0.000000 -4.562607 -0.127420
v 0.000000 -4.561001 -0.125836
v 0.000000 -4.559928 -0.123852
v -0.058068 -4.564507 -0.128343
v -0.056200 -4.559551 -0.121770
v -0.057879 -4.562610 -0.127408
v -0.057458 -4.561003 -0.125830
v -0.056868 -4.559928 -0.123850
v -0.116018 -4.564523 -0.128284
v -0.112400 -4.559551 -0.121770
v -0.115685 -4.562621 -0.127371
v -0.114881 -4.561007 -0.125813
v -0.113727 -4.559930 -0.123846
v -0.183426 -4.559551 0.123760
v -0.195744 -4.564576 0.130064
v -0.188146 -4.559934 0.125820
v -0.192145 -4.561023 0.127741
v -0.194813 -4.562653 0.129232
v 0.195744 -4.564576 0.130064
v 0.183426 -4.559551 0.123760
v 0.194813 -4.562653 0.129232
v 0.192145 -4.561023 0.127741
v 0.188146 -4.559934 0.125820
v -0.130722 -4.564548 0.130178
v -0.122284 -4.559551 0.123760
v -0.130015 -4.562636 0.129302
v -0.128163 -4.561015 0.127775
v -0.125448 -4.559932 0.125828
v -0.065429 -4.564530 0.130247
v -0.061142 -4.559551 0.123760
v -0.065049 -4.562625 0.129345
v -0.064101 -4.561009 0.127795
v -0.062729 -4.559930 0.125834
v 0.000000 -4.564524 0.130270
v -0.000000 -4.559551 0.123760
v 0.000000 -4.562621 0.129359
v -0.000000 -4.561008 0.127802
v -0.000000 -4.559930 0.125835
v 0.065429 -4.564530 0.130247
v 0.061142 -4.559551 0.123760
v 0.065049 -4.562625 0.129345
v 0.064101 -4.561010 0.127795
v 0.062729 -4.559930 0.125834
v 0.130722 -4.564548 0.130178
v 0.122284 -4.559551 0.123760
v 0.130015 -4.562636 0.129302
v 0.128163 -4.561015 0.127775
v 0.125448 -4.559932 0.125828
vn -0.1424 -0.2072 -0.9679
vn -0.0781 -0.1628 -0.9836
vn -0.0250 -0.1438 -0.9893
vn 0.0250 -0.1438 -0.9893
vn 0.0781 -0.1628 -0.9836
vn 0.1424 -0.2072 -0.9679
vn 0.1155 -0.1369 -0.9838
vn 0.0626 -0.1267 -0.9900
vn 0.0199 -0.1212 -0.9924
vn -0.0199 -0.1212 -0.9924
vn -0.0626 -0.1267 -0.9900
vn -0.1155 -0.1369 -0.9838
vn 0.1476 -0.0710 -0.9865
vn 0.0803 -0.0703 -0.9943
vn 0.0256 -0.0698 -0.9972
vn -0.0256 -0.0698 -0.9972
vn -0.0803 -0.0703 -0.9943
vn -0.1476 -0.0710 -0.9865
vn 0.1443 -0.2266 -0.9632
vn 0.0785 -0.2292 -0.9702
vn 0.0250 -0.2303 -0.9728
vn -0.0250 -0.2303 -0.9728
vn -0.0785 -0.2292 -0.9702
vn -0.1443 -0.2266 -0.9632
vn 0.2043 -0.2494 0.9466
vn 0.0781 -0.1628 0.9836
vn 0.0250 -0.1438 0.9893
vn -0.0250 -0.1438 0.9893
vn -0.0781 -0.1628 0.9836
vn -0.2043 -0.2494 0.9466
vn -0.1156 -0.1432 0.9829
vn -0.0626 -0.1318 0.9893
vn -0.0199 -0.1256 0.9919
vn 0.0199 -0.1256 0.9919
vn 0.0626 -0.1318 0.9893
vn 0.1156 -0.1432 0.9829
vn -0.1475 -0.0718 0.9864
vn -0.0803 -0.0709 0.9942
vn -0.0256 -0.0703 0.9972
vn 0.0256 -0.0703 0.9972
vn 0.0803 -0.0709 0.9942
vn 0.1475 -0.0718 0.9864
vn -0.1745 -0.2315 0.9571
vn -0.0785 -0.2288 0.9703
vn -0.0250 -0.2299 0.9729
vn 0.0250 -0.2299 0.9729
vn 0.0785 -0.2288 0.9703
vn 0.1745 -0.2315 0.9571
vn 0.6998 0.1399 -0.7005
vn 0.7378 0.1419 -0.6599
vn 0.6441 0.0869 -0.7600
vn 0.6965 0.1040 -0.7099
vn 0.8302 0.1437 -0.5387
vn 0.7973 0.0675 -0.5997
vn 0.7991 0.1472 -0.5830
vn 0.7857 0.1064 -0.6094
vn 0.7601 -0.1524 -0.6316
vn 0.7059 -0.0844 -0.7032
vn 0.7623 -0.0595 -0.6445
vn 0.7257 -0.0150 -0.6878
vn 0.4443 -0.0624 -0.8937
vn 0.5380 0.0005 -0.8429
vn 0.5755 -0.0477 -0.8164
vn 0.5972 0.0018 -0.8021
vn 0.7945 0.5137 -0.3238
vn 0.7909 0.4425 -0.4228
vn 0.6910 0.6352 -0.3450
vn 0.7347 0.5258 -0.4286
vn 0.6794 0.2755 -0.6800
vn 0.5886 0.3059 -0.7483
vn 0.7328 0.3411 -0.5888
vn 0.6564 0.3674 -0.6589
vn 0.3196 0.3865 -0.8651
vn 0.3648 0.5547 -0.7478
vn 0.4222 0.3499 -0.8363
vn 0.4446 0.4567 -0.7706
vn 0.2826 0.9202 -0.2707
vn 0.4650 0.8201 -0.3336
vn 0.3564 0.7991 -0.4842
vn 0.5024 0.7071 -0.4975
vn 0.4499 -0.0600 0.8911
vn 0.5787 -0.0465 0.8142
vn 0.5413 0.0024 0.8408
vn 0.5994 0.0029 0.8004
vn 0.7606 -0.1523 0.6311
vn 0.7629 -0.0593 0.6438
vn 0.7073 -0.0840 0.7020
vn 0.7267 -0.0145 0.6868
vn 0.8304 0.1439 0.5382
vn 0.7995 0.1475 0.5823
vn 0.7978 0.0677 0.5992
vn 0.7863 0.1068 0.6085
vn 0.7004 0.1404 0.6998
vn 0.6456 0.0880 0.7586
vn 0.7384 0.1424 0.6591
vn 0.6976 0.1047 0.7088
vn 0.7960 0.5111 0.3242
vn 0.6931 0.6330 0.3449
vn 0.7930 0.4383 0.4231
vn 0.7374 0.5221 0.4286
vn 0.2845 0.9195 0.2711
vn 0.3590 0.7968 0.4860
vn 0.4673 0.8188 0.3336
vn 0.5055 0.7043 0.4985
vn 0.3217 0.3777 0.8682
vn 0.4247 0.3412 0.8386
vn 0.3675 0.5484 0.7511
vn 0.4476 0.4496 0.7730
vn 0.6821 0.2680 0.6804
vn 0.7354 0.3347 0.5892
vn 0.5914 0.2978 0.7494
vn 0.6594 0.3606 0.6597
vn 0.9220 -0.1906 0.3371
vn 0.9613 -0.2294 0.1524
vn 0.9590 0.0078 0.2832
vn 0.9871 -0.0681 0.1450
vn 0.9222 -0.1907 -0.3365
vn 0.9592 0.0077 -0.2827
vn 0.9615 -0.2295 -0.1514
vn 0.9872 -0.0681 -0.1442
vn 0.8920 0.4520 0.0002
vn 0.9454 0.2979 0.1319
vn 0.9455 0.2979 -0.1314
vn 0.9794 0.2018 0.0003
vn -0.4444 -0.0624 -0.8937
vn -0.5755 -0.0477 -0.8164
vn -0.5380 0.0005 -0.8429
vn -0.5972 0.0018 -0.8021
vn -0.7601 -0.1524 -0.6316
vn -0.7623 -0.0595 -0.6445
vn -0.7059 -0.0844 -0.7032
vn -0.7257 -0.0150 -0.6879
vn -0.8302 0.1437 -0.5387
vn -0.7991 0.1472 -0.5830
vn -0.7973 0.0675 -0.5997
vn -0.7857 0.1064 -0.6094
vn -0.6998 0.1399 -0.7005
vn -0.6441 0.0869 -0.7600
vn -0.7378 0.1420 -0.6599
vn -0.6965 0.1040 -0.7099
vn -0.7945 0.5137 -0.3238
vn -0.6910 0.6352 -0.3450
vn -0.7909 0.4425 -0.4227
vn -0.7347 0.5258 -0.4286
vn -0.2826 0.9202 -0.2707
vn -0.3564 0.7991 -0.4842
vn -0.4649 0.8201 -0.3336
vn -0.5024 0.7071 -0.4975
vn -0.3196 0.3865 -0.8651
vn -0.4222 0.3498 -0.8363
vn -0.3648 0.5547 -0.7478
vn -0.4446 0.4567 -0.7706
vn -0.6794 0.2755 -0.6800
vn -0.7328 0.3411 -0.5888
vn -0.5886 0.3059 -0.7483
vn -0.6563 0.3674 -0.6589
vn -0.7004 0.1404 0.6998
vn -0.7384 0.1424 0.6591
vn -0.6456 0.0880 0.7586
vn -0.6976 0.1047 0.7088
vn -0.8304 0.1439 0.5382
vn -0.7978 0.0677 0.5992
vn -0.7995 0.1475 0.5823
vn -0.7863 0.1068 0.6085
vn -0.7606 -0.1523 0.6311
vn -0.7073 -0.0840 0.7020
vn -0.7629 -0.0593 0.6438
vn -0.7267 -0.0145 0.6868
vn -0.4499 -0.0600 0.8911
vn -0.5413 0.0024 0.8408
vn -0.5787 -0.0465 0.8142
vn -0.5994 0.0029 0.8004
vn -0.7960 0.5111 0.3242
vn -0.7930 0.4383 0.4231
vn -0.6931 0.6330 0.3449
vn -0.7374 0.5221 0.4286
vn -0.6821 0.2680 0.6804
vn -0.5914 0.2978 0.7494
vn -0.7354 0.3347 0.5892
vn -0.6594 0.3606 0.6597
vn -0.3217 0.3777 0.8682
vn -0.3675 0.5484 0.7511
vn -0.4247 0.3412 0.8386
vn -0.4476 0.4496 0.7730
vn -0.2845 0.9196 0.2711
vn -0.4673 0.8188 0.3336
vn -0.3591 0.7968 0.4860
vn -0.5055 0.7043 0.4985
vn -0.9220 -0.1906 0.3371
vn -0.9590 0.0078 0.2832
vn -0.9613 -0.2294 0.1524
vn -0.9871 -0.0681 0.1450
vn -0.8920 0.4520 0.0001
vn -0.9455 0.2979 -0.1314
vn -0.9454 0.2979 0.1318
vn -0.9794 0.2018 0.0003
vn -0.9222 -0.1907 -0.3365
vn -0.9615 -0.2295 -0.1514
vn -0.9592 0.0077 -0.2827
vn -0.9872 -0.0681 -0.1442
vn 0.7171 -0.2912 -0.6332
vn 0.6040 -0.2449 -0.7584
vn 0.4904 -0.1981 -0.8487
vn 0.3460 -0.1390 -0.9279
vn 0.3465 -0.2716 -0.8979
vn 0.4574 -0.3033 -0.8359
vn 0.5492 -0.3263 -0.7694
vn 0.6491 -0.3475 -0.6767
vn 0.6194 0.1212 -0.7757
vn 0.5134 0.0370 -0.8573
vn 0.4059 -0.0403 -0.9130
vn 0.2659 -0.1320 -0.9549
vn 0.9043 0.4117 -0.1128
vn 0.8911 0.3574 -0.2796
vn 0.8570 0.3019 -0.4176
vn 0.7937 0.2305 -0.5629
vn 0.1566 0.2177 -0.9634
vn 0.3178 0.2064 -0.9254
vn 0.4526 0.1922 -0.8708
vn 0.5971 0.1713 -0.7836
vn 0.9405 0.2351 -0.2452
vn 0.9010 0.2283 -0.3690
vn 0.8546 0.2191 -0.4707
vn 0.7876 0.2060 -0.5808
vn 0.3551 -0.1423 0.9240
vn 0.4961 -0.2002 0.8449
vn 0.6072 -0.2460 0.7555
vn 0.7181 -0.2915 0.6320
vn 0.6796 -0.3528 0.6432
vn 0.6085 -0.3381 0.7179
vn 0.5428 -0.3216 0.7759
vn 0.4734 -0.3021 0.8274
vn 0.2671 -0.1312 0.9547
vn 0.4054 -0.0406 0.9132
vn 0.5116 0.0355 0.8585
vn 0.6165 0.1185 0.7784
vn 0.7990 0.2281 0.5564
vn 0.8602 0.2997 0.4125
vn 0.8929 0.3556 0.2762
vn 0.9049 0.4108 0.1116
vn 0.5951 0.1632 0.7869
vn 0.4513 0.1828 0.8734
vn 0.3172 0.1962 0.9278
vn 0.1567 0.2070 0.9657
vn 0.7922 0.2065 0.5743
vn 0.8574 0.2193 0.4656
vn 0.9024 0.2284 0.3653
vn 0.9409 0.2352 0.2437
vn 0.9059 0.3565 0.2288
vn 0.9229 0.1650 0.3478
vn 0.9004 -0.0086 0.4349
vn 0.8380 -0.2007 0.5074
vn 0.7135 -0.2898 -0.6379
vn 0.5943 -0.2413 -0.7672
vn 0.4760 -0.1931 -0.8580
vn 0.3290 -0.1332 -0.9349
vn 0.3336 -0.1349 0.9330
vn 0.4787 -0.1941 0.8563
vn 0.5955 -0.2418 0.7661
vn 0.7138 -0.2899 0.6375
vn 0.9058 0.3565 -0.2288
vn 0.9229 0.1650 -0.3478
vn 0.9004 -0.0086 -0.4349
vn 0.8380 -0.2007 -0.5074
vn 0.8084 -0.3066 0.5025
vn 0.9229 -0.3487 0.1636
vn 0.9188 -0.3477 -0.1870
vn 0.7950 -0.3033 -0.5253
vn 0.8446 -0.3207 0.4287
vn 0.9261 -0.3502 0.1404
vn 0.9263 -0.3502 -0.1388
vn 0.8449 -0.3208 -0.4280
vn 0.8516 -0.3459 0.3939
vn 0.9190 -0.3733 0.1271
vn 0.9191 -0.3733 -0.1258
vn 0.8518 -0.3460 -0.3933
vn 0.9190 -0.3733 0.1270
vn 0.9191 -0.3733 -0.1259
vn 0.8518 -0.3460 -0.3934
vn -0.3460 -0.1390 -0.9279
vn -0.4904 -0.1981 -0.8487
vn -0.6040 -0.2449 -0.7584
vn -0.7171 -0.2912 -0.6332
vn -0.6491 -0.3475 -0.6767
vn -0.5492 -0.3263 -0.7694
vn -0.4574 -0.3033 -0.8359
vn -0.3465 -0.2716 -0.8979
vn -0.2659 -0.1320 -0.9549
vn -0.4059 -0.0403 -0.9130
vn -0.5134 0.0370 -0.8573
vn -0.6194 0.1212 -0.7757
vn -0.7937 0.2305 -0.5629
vn -0.8570 0.3019 -0.4176
vn -0.8911 0.3574 -0.2796
vn -0.9043 0.4117 -0.1128
vn -0.5971 0.1713 -0.7836
vn -0.4526 0.1922 -0.8708
vn -0.3178 0.2064 -0.9254
vn -0.1566 0.2177 -0.9634
vn -0.7876 0.2060 -0.5808
vn -0.8546 0.2191 -0.4707
vn -0.9010 0.2283 -0.3690
vn -0.9405 0.2351 -0.2452
vn -0.7181 -0.2915 0.6320
vn -0.6072 -0.2460 0.7555
vn -0.4961 -0.2002 0.8449
vn -0.3551 -0.1423 0.9240
vn -0.4734 -0.3021 0.8274
vn -0.5428 -0.3216 0.7759
vn -0.6085 -0.3381 0.7179
vn -0.6796 -0.3528 0.6432
vn -0.6165 0.1185 0.7784
vn -0.5116 0.0355 0.8585
vn -0.4054 -0.0406 0.9132
vn -0.2671 -0.1312 0.9547
vn -0.9049 0.4108 0.1116
vn -0.8929 0.3556 0.2762
vn -0.8602 0.2997 0.4125
vn -0.7990 0.2281 0.5564
vn -0.1567 0.2070 0.9657
vn -0.3172 0.1962 0.9278
vn -0.4513 0.1828 0.8734
vn -0.5951 0.1632 0.7869
vn -0.9409 0.2352 0.2437
vn -0.9024 0.2284 0.3653
vn -0.8574 0.2193 0.4656
vn -0.7922 0.2065 0.5743
vn -0.8380 -0.2007 0.5074
vn -0.9004 -0.0086 0.4349
vn -0.9229 0.1650 0.3478
vn -0.9059 0.3565 0.2288
vn -0.3290 -0.1332 -0.9349
vn -0.4760 -0.1931 -0.8580
vn -0.5943 -0.2413 -0.7672
vn -0.7135 -0.2898 -0.6379
vn -0.7138 -0.2899 0.6375
vn -0.5955 -0.2418 0.7661
vn -0.4787 -0.1941 0.8563
vn -0.3336 -0.1349 0.9330
vn -0.8380 -0.2007 -0.5074
vn -0.9004 -0.0086 -0.4349
vn -0.9229 0.1650 -0.3478
vn -0.9058 0.3565 -0.2288
vn -0.7950 -0.3033 -0.5253
vn -0.9188 -0.3477 -0.1870
vn -0.9229 -0.3487 0.1636
vn -0.8084 -0.3066 0.5025
vn -0.8449 -0.3208 -0.4280
vn -0.9263 -0.3502 -0.1388
vn -0.9261 -0.3502 0.1404
vn -0.8446 -0.3207 0.4287
vn -0.8518 -0.3460 -0.3933
vn -0.9191 -0.3733 -0.1258
vn -0.9190 -0.3733 0.1271
vn -0.8516 -0.3459 0.3939
vn -0.8518 -0.3460 -0.3934
vn -0.9191 -0.3733 -0.1259
vn -0.9190 -0.3733 0.1270
vn -0.8143 0.5804 -0.0000
vn -0.6291 0.7773 -0.0000
vn -0.4204 0.9074 -0.0000
vn -0.1620 0.9868 -0.0000
vn 0.1620 0.9868 -0.0000
vn 0.4203 0.9074 -0.0000
vn 0.6291 0.7773 -0.0000
vn 0.8143 0.5804 -0.0000
vn 0.0014 0.4245 -0.9054
vn 0.0007 0.6904 -0.7234
vn 0.0002 0.8754 -0.4834
vn -0.0000 0.9836 -0.1801
vn 0.0008 0.4375 -0.8992
vn 0.0004 0.6977 -0.7164
vn 0.0001 0.8780 -0.4787
vn -0.0000 0.9839 -0.1789
vn 0.0003 0.4440 -0.8960
vn 0.0001 0.7014 -0.7128
vn -0.0000 0.8793 -0.4763
vn -0.0000 0.9840 -0.1782
vn -0.0003 0.4440 -0.8960
vn -0.0001 0.7014 -0.7128
vn -0.0008 0.4375 -0.8992
vn -0.0004 0.6977 -0.7164
vn -0.0001 0.8780 -0.4787
vn -0.0014 0.4245 -0.9054
vn -0.0007 0.6904 -0.7234
vn -0.0002 0.8754 -0.4834
vn -0.0000 0.9833 -0.1818
vn 0.0003 0.8716 -0.4902
vn 0.0011 0.6796 -0.7336
vn 0.0023 0.4055 -0.9141
vn -0.0003 0.8716 -0.4902
vn -0.0011 0.6796 -0.7336
vn -0.0023 0.4055 -0.9141
vn -0.0014 0.4074 0.9132
vn -0.0007 0.6808 0.7324
vn -0.0002 0.8721 0.4894
vn -0.0000 0.9834 0.1816
vn -0.0009 0.4224 0.9064
vn -0.0004 0.6892 0.7245
vn -0.0001 0.8750 0.4841
vn -0.0000 0.9836 0.1803
vn -0.0003 0.4300 0.9028
vn -0.0001 0.6934 0.7205
vn -0.0000 0.8765 0.4814
vn -0.0000 0.9837 0.1796
vn 0.0003 0.4300 0.9028
vn 0.0001 0.6934 0.7205
vn 0.0009 0.4224 0.9064
vn 0.0004 0.6892 0.7245
vn 0.0001 0.8750 0.4841
vn 0.0014 0.4074 0.9132
vn 0.0007 0.6808 0.7324
vn 0.0002 0.8721 0.4894
vn -0.6483 -0.4644 0.6033
vn -0.7962 -0.5703 0.2018
vn -0.7844 -0.5618 -0.2630
vn -0.6189 -0.4432 -0.6485
vn -0.0000 0.9831 0.1830
vn 0.0003 0.8689 0.4950
vn 0.0012 0.6718 0.7408
vn 0.0025 0.3916 0.9201
vn -0.0003 0.8689 0.4950
vn -0.0012 0.6718 0.7408
vn -0.0025 0.3916 0.9201
vn 0.6189 -0.4432 -0.6485
vn 0.7844 -0.5618 -0.2630
vn 0.7962 -0.5703 0.2018
vn 0.6483 -0.4644 0.6033
vn 0.2364 -0.0825 -0.9682
vn 0.7800 -0.3169 -0.5396
vn 0.2956 -0.2362 -0.9257
vn 0.7413 -0.3240 -0.5878
vn 0.1979 -0.1584 -0.9673
vn 0.6985 0.1737 -0.6942
vn 0.9589 0.2838 -0.0000
vn 0.2409 -0.2673 -0.9330
vn -0.5025 -0.3600 -0.7861
vn 0.5370 -0.3846 0.7508
vn -0.1916 -0.2373 0.9523
vn -0.5370 -0.3846 0.7508
vn 0.5025 -0.3600 -0.7861
vn 0.1916 -0.2373 0.9523
vn -0.2409 -0.2673 -0.9330
vn 0.0469 0.2332 -0.9713
vn 0.8976 0.4409 -0.0000
vn -0.0000 1.0000 -0.0000
vn 0.2440 -0.0842 0.9661
vn 0.7413 -0.3241 0.5878
vn 0.7800 -0.3169 0.5396
vn 0.2863 -0.2392 0.9278
vn 0.2091 -0.1581 0.9650
vn 0.6992 0.1705 0.6943
vn 0.0471 0.2169 0.9751
vn 0.6453 -0.3020 -0.7017
vn 0.6867 -0.2927 0.6654
vn -0.2364 -0.0825 -0.9682
vn -0.7413 -0.3240 -0.5878
vn -0.7800 -0.3169 -0.5396
vn -0.2956 -0.2362 -0.9257
vn -0.1979 -0.1584 -0.9673
vn -0.6985 0.1737 -0.6942
vn -0.9589 0.2838 -0.0000
vn -0.0469 0.2332 -0.9713
vn -0.8976 0.4409 -0.0000
vn -0.2440 -0.0842 0.9661
vn -0.7800 -0.3169 0.5396
vn -0.2863 -0.2392 0.9278
vn -0.7413 -0.3241 0.5878
vn -0.2091 -0.1581 0.9650
vn -0.6992 0.1705 0.6943
vn -0.0471 0.2169 0.9751
vn -0.6453 -0.3020 -0.7017
vn -0.6867 -0.2927 0.6654
vn 0.0335 0.2547 -0.9664
vn -0.0335 0.2547 -0.9664
vn 0.0192 0.2701 -0.9626
vn 0.0063 0.2773 -0.9608
vn -0.0063 0.2773 -0.9608
vn -0.0192 0.2701 -0.9626
vn -0.0341 0.2347 0.9715
vn 0.0341 0.2347 0.9715
vn -0.0195 0.2526 0.9674
vn -0.0064 0.2609 0.9653
vn 0.0064 0.2609 0.9653
vn 0.0195 0.2526 0.9674
vt 0.000000 0.000000
vt 0.487146 0.389717
vt 0.285438 0.228350
vt 0.202300 0.161840
vt 0.344995 0.275996
vt 0.106460 0.085168
vt 0.180246 0.144197
vt 0.106460 0.085168
vt 0.285438 0.228350
vt 0.487146 0.389717
vt -0.000096 -0.000077
vt -0.000286 -0.000229
vt -0.000286 -0.000229
vt 0.548843 0.439074
vt 0.321589 0.257272
vt 0.227909 0.182327
vt 0.388702 0.310961
vt 0.119920 0.095936
vt 0.203102 0.162482
vt 0.119920 0.095936
vt 0.321589 0.257271
vt 0.548843 0.439074
vt -0.000116 -0.000093
vt -0.000336 -0.000269
vt -0.000336 -0.000269
vt -0.000116 -0.000093
vt 0.625000 0.500000
vt 0.625000 0.500000
vt 0.625000 0.500000
vt 0.625000 0.500000
vt 0.625000 0.500000
vt 0.609110 0.487288
vt 0.610636 0.488509
vt 0.618733 0.494986
vt 0.616195 0.492956
vt 0.613730 0.490984
vt 0.622349 0.497879
vt 0.614824 0.491859
vt 0.619308 0.495446
vt 0.620302 0.496241
vt 0.614958 0.491966
vt 0.625000 0.500000
vt 0.624572 0.499658
vt 0.610286 0.488229
vt 0.610385 0.488308
vt 0.617183 0.493746
vt 0.616724 0.493379
vt 0.610376 0.488301
vt 0.616934 0.493547
vt 0.610628 0.488502
vt 0.616610 0.493288
vt 0.616930 0.493544
vt 0.610512 0.488410
vt 0.614701 0.491761
vt 0.613789 0.491031
vt 0.622707 0.498165
vt 0.621775 0.497420
vt 0.612337 0.489869
vt 0.621602 0.497281
vt 0.628146 0.502517
vt 0.627550 0.502040
vt 0.609110 0.487288
vt 0.616195 0.492956
vt 0.618745 0.494996
vt 0.610653 0.488523
vt 0.625000 0.500000
vt 0.625000 0.500000
vt 0.624573 0.499658
vt 0.610628 0.488502
vt 0.610522 0.488417
vt 0.616935 0.493548
vt 0.616610 0.493288
vt 0.610396 0.488317
vt 0.616944 0.493555
vt 0.610329 0.488264
vt 0.616749 0.493399
vt 0.617202 0.493762
vt 0.610419 0.488335
vt 0.609590 0.487672
vt 0.611130 0.488904
vt 0.616764 0.493411
vt 0.615878 0.492702
vt 0.613350 0.490680
vt 0.618350 0.494680
vt 0.623921 0.499137
vt 0.609590 0.487672
vt 0.615878 0.492702
vt 0.616765 0.493412
vt 0.611131 0.488905
vt 0.625000 0.500000
vt 0.614824 0.491859
vt 0.613879 0.491103
vt 0.622734 0.498187
vt 0.621784 0.497427
vt 0.612289 0.489831
vt 0.621572 0.497257
vt 0.628062 0.502450
vt 0.627477 0.501981
vt 0.609110 0.487288
vt 0.616195 0.492956
vt 0.618733 0.494986
vt 0.610636 0.488509
vt 0.625000 0.500000
vt 0.624572 0.499658
vt 0.610512 0.488410
vt 0.616930 0.493544
vt 0.616610 0.493288
vt 0.610376 0.488301
vt 0.610286 0.488229
vt 0.625000 0.500000
vt 0.618745 0.494996
vt 0.616195 0.492956
vt 0.613705 0.490964
vt 0.622336 0.497869
vt 0.614701 0.491761
vt 0.619278 0.495422
vt 0.620278 0.496223
vt 0.614837 0.491870
vt 0.624573 0.499658
vt 0.610419 0.488335
vt 0.617202 0.493762
vt 0.610396 0.488317
vt 0.616944 0.493555
vt 0.610628 0.488502
vt 0.616610 0.493288
vt 0.616935 0.493548
vt 0.610522 0.488417
vt 0.609590 0.487672
vt 0.615878 0.492702
vt 0.616764 0.493412
vt 0.611130 0.488904
vt 0.618350 0.494680
vt 0.611131 0.488905
vt 0.615878 0.492702
vt 0.312500 0.250000
vt -0.000364 -0.000291
vt 0.312238 0.249791
vt 0.311826 0.249461
vt -0.000269 -0.000215
vt 0.311292 0.249033
vt 0.310943 0.248754
vt 0.616792 0.493434
vt 0.610195 0.488156
vt 0.310640 0.248512
vt -0.000274 -0.000219
vt 0.311123 0.248899
vt 0.311826 0.249461
vt -0.000364 -0.000291
vt 0.312235 0.249788
vt 0.610239 0.488191
vt 0.616831 0.493465
vt 0.000267 0.000214
vt 0.001439 0.001151
vt 0.000268 0.000214
vt 0.312965 0.250372
vt 0.313744 0.250995
vt 0.312966 0.250373
vt 0.310943 0.248754
vt -0.000269 -0.000215
vt 0.311292 0.249033
vt 0.311826 0.249461
vt 0.312238 0.249791
vt 0.610195 0.488156
vt 0.616792 0.493434
vt 0.625000 0.500000
vt 0.312235 0.249788
vt -0.000274 -0.000219
vt 0.311123 0.248899
vt 0.310640 0.248512
vt 0.625000 0.500000
vt 0.616831 0.493465
vt 0.312966 0.250372
vt 0.484526 0.387621
vt 0.323590 0.258872
vt 0.322648 0.258118
vt 0.483442 0.386754
vt 0.321641 0.257313
vt 0.482339 0.385871
vt 0.317100 0.253680
vt 0.475587 0.380469
vt 0.313400 0.250720
vt 0.470100 0.376080
vt 0.162009 0.129607
vt 0.161454 0.129163
vt 0.160845 0.128676
vt 0.158563 0.126850
vt 0.156700 0.125360
vt 0.000006 0.000005
vt 0.162009 0.129607
vt 0.161454 0.129163
vt 0.160845 0.128676
vt -0.161427 -0.129142
vt -0.159137 -0.127310
vt -0.157268 -0.125814
vt 0.321641 0.257313
vt -0.322797 -0.258238
vt -0.318240 -0.254592
vt -0.314526 -0.251621
vt 0.484526 0.387621
vt 0.483442 0.386754
vt 0.483042 0.386434
vt -0.481931 -0.385545
vt -0.477271 -0.381817
vt -0.471764 -0.377411
vt 0.470100 0.376080
vt 0.475587 0.380469
vt 0.545929 0.436743
vt 0.364605 0.291684
vt 0.362612 0.290090
vt 0.543314 0.434652
vt 0.360622 0.288497
vt 0.540794 0.432635
vt 0.349780 0.279824
vt 0.524598 0.419679
vt 0.340958 0.272766
vt 0.511437 0.409149
vt 0.182546 0.146037
vt 0.181453 0.145163
vt 0.180338 0.144271
vt 0.174904 0.139924
vt 0.170479 0.136383
vt 0.000007 0.000005
vt 0.182546 0.146037
vt 0.181453 0.145163
vt 0.180338 0.144271
vt -0.180983 -0.144787
vt -0.175530 -0.140424
vt -0.171089 -0.136871
vt 0.364605 0.291684
vt 0.362612 0.290089
vt 0.360622 0.288497
vt -0.361897 -0.289517
vt -0.351017 -0.280814
vt -0.342163 -0.273731
vt 0.543314 0.434651
vt 0.542476 0.433981
vt -0.537608 -0.430086
vt -0.526419 -0.421136
vt -0.513212 -0.410570
vt 0.511437 0.409149
vt 0.524598 0.419679
s 0
usemtl Crossguard_and_Pommel
f 283/259/214 286/259/214 285/259/214
f 286/259/215 287/259/215 285/259/215
f 287/259/216 288/259/216 285/259/216
f 288/259/217 289/259/217 285/259/217
f 289/259/218 290/259/218 285/259/218
f 290/259/219 284/259/219 285/259/219
f 263/260/220 269/261/220 271/262/220 268/263/220
f 268/263/221 271/262/221 272/264/221 267/265/221
f 267/265/222 272/264/222 273/259/222 266/259/222
f 266/259/223 273/259/223 274/266/223 265/265/223
f 265/265/224 274/266/224 275/262/224 264/263/224
f 264/263/225 275/262/225 270/267/225 262/268/225
f 269/261/226 276/259/226 278/269/226 271/262/226
f 271/262/227 278/269/227 279/270/227 272/264/227
f 272/264/228 279/270/228 280/259/228 273/259/228
f 273/259/229 280/259/229 281/271/229 274/266/229
f 274/266/230 281/271/230 282/269/230 275/262/230
f 275/262/231 282/269/231 277/259/231 270/267/231
f 276/259/232 284/259/232 290/259/232 278/269/232
f 278/269/233 290/259/233 289/259/233 279/270/233
f 279/270/234 289/259/234 288/259/234 280/259/234
f 280/259/235 288/259/235 287/259/235 281/271/235
f 281/271/236 287/259/236 286/259/236 282/269/236
f 282/269/237 286/259/237 283/259/237 277/259/237
f 259/259/238 313/259/238 312/259/238
f 313/259/239 314/259/239 312/259/239
f 314/259/240 315/259/240 312/259/240
f 315/259/241 316/259/241 312/259/241
f 316/259/242 317/259/242 312/259/242
f 317/259/243 261/259/243 312/259/243
f 292/272/244 298/273/244 300/274/244 297/275/244
f 297/275/245 300/274/245 301/276/245 296/277/245
f 296/277/246 301/276/246 302/259/246 295/259/246
f 295/259/247 302/259/247 303/278/247 294/277/247
f 294/277/248 303/278/248 304/274/248 293/275/248
f 293/275/249 304/274/249 299/279/249 291/280/249
f 298/273/250 305/259/250 307/281/250 300/274/250
f 300/274/251 307/281/251 308/282/251 301/276/251
f 301/276/252 308/282/252 309/259/252 302/259/252
f 302/259/253 309/259/253 310/283/253 303/278/253
f 303/278/254 310/283/254 311/284/254 304/274/254
f 304/274/255 311/284/255 306/259/255 299/279/255
f 305/259/256 261/259/256 317/259/256 307/281/256
f 307/281/257 317/259/257 316/259/257 308/282/257
f 308/282/258 316/259/258 315/259/258 309/259/258
f 309/259/259 315/259/259 314/259/259 310/283/259
f 310/283/260 314/259/260 313/259/260 311/284/260
f 311/284/261 313/259/261 259/259/261 306/259/261
f 324/285/262 328/285/262 331/286/262 330/287/262
f 328/285/263 329/288/263 332/288/263 331/286/263
f 330/287/264 331/286/264 348/288/264 345/288/264
f 331/286/265 332/288/265 333/288/265 348/288/265
f 325/289/266 334/289/266 337/288/266 336/289/266
f 334/289/267 335/288/267 338/288/267 337/288/267
f 336/289/268 337/288/268 332/288/268 329/288/268
f 337/288/269 338/288/269 333/288/269 332/288/269
f 326/290/270 339/291/270 342/292/270 341/293/270
f 339/291/271 340/294/271 343/295/271 342/292/271
f 341/293/272 342/292/272 338/288/272 335/288/272
f 342/292/273 343/295/273 333/288/273 338/288/273
f 327/296/274 344/297/274 347/298/274 346/299/274
f 344/297/275 345/288/275 348/288/275 347/298/275
f 346/299/276 347/298/276 343/295/276 340/294/276
f 347/298/277 348/288/277 333/288/277 343/295/277
f 364/300/278 368/288/278 371/288/278 370/289/278
f 368/288/279 369/288/279 372/288/279 371/288/279
f 370/289/280 371/288/280 388/288/280 385/288/280
f 371/288/281 372/288/281 373/301/281 388/288/281
f 365/285/282 374/288/282 377/288/282 376/285/282
f 374/288/283 375/288/283 378/288/283 377/288/283
f 376/285/284 377/288/284 372/288/284 369/288/284
f 377/288/285 378/288/285 373/301/285 372/288/285
f 366/302/286 379/303/286 382/304/286 381/305/286
f 379/303/287 380/306/287 383/307/287 382/304/287
f 381/305/288 382/304/288 378/288/288 375/288/288
f 382/304/289 383/307/289 373/301/289 378/288/289
f 367/308/290 384/309/290 387/310/290 386/311/290
f 384/309/291 385/288/291 388/288/291 387/310/291
f 386/311/292 387/310/292 383/307/292 380/306/292
f 387/310/293 388/288/293 373/301/293 383/307/293
f 394/312/294 398/313/294 401/314/294 400/315/294
f 398/313/295 399/316/295 402/317/295 401/314/295
f 400/315/296 401/314/296 418/318/296 415/319/296
f 401/314/297 402/317/297 403/288/297 418/318/297
f 395/320/298 404/321/298 407/322/298 406/323/298
f 404/321/299 405/288/299 408/288/299 407/322/299
f 406/323/300 407/322/300 402/317/300 399/316/300
f 407/322/301 408/288/301 403/288/301 402/317/301
f 396/285/302 409/324/302 412/288/302 411/286/302
f 409/324/303 410/288/303 413/288/303 412/288/303
f 411/286/304 412/288/304 408/288/304 405/288/304
f 412/288/305 413/288/305 403/288/305 408/288/305
f 397/324/306 414/325/306 417/288/306 416/285/306
f 414/325/307 415/319/307 418/318/307 417/288/307
f 416/285/308 417/288/308 413/288/308 410/288/308
f 417/288/309 418/318/309 403/288/309 413/288/309
f 429/285/310 433/288/310 436/285/310 435/288/310
f 433/288/311 434/288/311 437/288/311 436/285/311
f 435/288/312 436/285/312 453/288/312 450/288/312
f 436/285/313 437/288/313 438/326/313 453/288/313
f 430/327/314 439/328/314 442/329/314 441/330/314
f 439/328/315 440/331/315 443/332/315 442/329/315
f 441/330/316 442/329/316 437/288/316 434/288/316
f 442/329/317 443/332/317 438/326/317 437/288/317
f 431/333/318 444/334/318 447/335/318 446/336/318
f 444/334/319 445/288/319 448/288/319 447/335/319
f 446/336/320 447/335/320 443/332/320 440/331/320
f 447/335/321 448/288/321 438/326/321 443/332/321
f 432/288/322 449/285/322 452/289/322 451/288/322
f 449/285/323 450/288/323 453/288/323 452/289/323
f 451/288/324 452/289/324 448/288/324 445/288/324
f 452/289/325 453/288/325 438/326/325 448/288/325
f 484/337/326 487/338/326 490/339/326 489/340/326
f 487/338/327 488/341/327 491/342/327 490/339/327
f 489/340/328 490/339/328 502/288/328 499/288/328
f 490/339/329 491/342/329 492/343/329 502/288/329
f 485/344/330 493/345/330 496/346/330 495/347/330
f 493/345/331 494/288/331 497/288/331 496/346/331
f 495/347/332 496/346/332 491/342/332 488/341/332
f 496/346/333 497/288/333 492/343/333 491/342/333
f 486/289/334 498/289/334 501/348/334 500/286/334
f 498/289/335 499/288/335 502/288/335 501/348/335
f 500/286/336 501/348/336 497/288/336 494/288/336
f 501/348/337 502/288/337 492/343/337 497/288/337
f 518/349/338 522/350/338 525/351/338 524/352/338
f 522/350/339 523/353/339 526/354/339 525/351/339
f 524/352/340 525/351/340 542/355/340 539/356/340
f 525/351/341 526/354/341 527/288/341 542/355/341
f 519/357/342 528/358/342 531/359/342 530/360/342
f 528/358/343 529/288/343 532/288/343 531/359/343
f 530/360/344 531/359/344 526/354/344 523/353/344
f 531/359/345 532/288/345 527/288/345 526/354/345
f 520/348/346 533/288/346 536/300/346 535/361/346
f 533/288/347 534/288/347 537/288/347 536/300/347
f 535/361/348 536/300/348 532/288/348 529/288/348
f 536/300/349 537/288/349 527/288/349 532/288/349
f 521/288/350 538/288/350 541/286/350 540/288/350
f 538/288/351 539/356/351 542/355/351 541/286/351
f 540/288/352 541/286/352 537/288/352 534/288/352
f 541/286/353 542/355/353 527/288/353 537/288/353
f 553/288/354 557/286/354 560/288/354 559/286/354
f 557/286/355 558/288/355 561/288/355 560/288/355
f 559/286/356 560/288/356 577/288/356 574/288/356
f 560/288/357 561/288/357 562/362/357 577/288/357
f 554/327/358 563/363/358 566/364/358 565/365/358
f 563/363/359 564/366/359 567/307/359 566/364/359
f 565/365/360 566/364/360 561/288/360 558/288/360
f 566/364/361 567/307/361 562/362/361 561/288/361
f 555/367/362 568/305/362 571/304/362 570/303/362
f 568/305/363 569/288/363 572/288/363 571/304/363
f 570/303/364 571/304/364 567/307/364 564/366/364
f 571/304/365 572/288/365 562/362/365 567/307/365
f 556/288/366 573/288/366 576/288/366 575/288/366
f 573/288/367 574/288/367 577/288/367 576/288/367
f 575/288/368 576/288/368 572/288/368 569/288/368
f 576/288/369 577/288/369 562/362/369 572/288/369
f 583/324/370 587/285/370 590/289/370 589/325/370
f 587/285/371 588/288/371 591/288/371 590/289/371
f 589/325/372 590/289/372 607/288/372 604/288/372
f 590/289/373 591/288/373 592/288/373 607/288/373
f 584/288/374 593/285/374 596/324/374 595/368/374
f 593/285/375 594/288/375 597/288/375 596/324/375
f 595/368/376 596/324/376 591/288/376 588/288/376
f 596/324/377 597/288/377 592/288/377 591/288/377
f 585/320/378 598/323/378 601/369/378 600/370/378
f 598/323/379 599/371/379 602/372/379 601/369/379
f 600/370/380 601/369/380 597/288/380 594/288/380
f 601/369/381 602/372/381 592/288/381 597/288/381
f 586/373/382 603/374/382 606/375/382 605/376/382
f 603/374/383 604/288/383 607/288/383 606/375/383
f 605/376/384 606/375/384 602/372/384 599/371/384
f 606/375/385 607/288/385 592/288/385 602/372/385
f 618/288/386 622/286/386 625/288/386 624/289/386
f 622/286/387 623/288/387 626/288/387 625/288/387
f 624/289/388 625/288/388 642/288/388 639/288/388
f 625/288/389 626/288/389 627/377/389 642/288/389
f 619/288/390 628/289/390 631/288/390 630/288/390
f 628/289/391 629/288/391 632/288/391 631/288/391
f 630/288/392 631/288/392 626/288/392 623/288/392
f 631/288/393 632/288/393 627/377/393 626/288/393
f 620/333/394 633/378/394 636/379/394 635/334/394
f 633/378/395 634/380/395 637/381/395 636/379/395
f 635/334/396 636/379/396 632/288/396 629/288/396
f 636/379/397 637/381/397 627/377/397 632/288/397
f 621/382/398 638/383/398 641/384/398 640/385/398
f 638/383/399 639/288/399 642/288/399 641/384/399
f 640/385/400 641/384/400 637/381/400 634/380/400
f 641/384/401 642/288/401 627/377/401 637/381/401
f 673/386/402 676/387/402 679/388/402 678/389/402
f 676/387/403 677/288/403 680/288/403 679/388/403
f 678/389/404 679/388/404 691/390/404 688/341/404
f 679/388/405 680/288/405 681/343/405 691/390/405
f 674/288/406 682/348/406 685/361/406 684/288/406
f 682/348/407 683/288/407 686/288/407 685/361/407
f 684/288/408 685/361/408 680/288/408 677/288/408
f 685/361/409 686/288/409 681/343/409 680/288/409
f 675/344/410 687/391/410 690/346/410 689/392/410
f 687/391/411 688/341/411 691/390/411 690/346/411
f 689/392/412 690/346/412 686/288/412 683/288/412
f 690/346/413 691/390/413 681/343/413 686/288/413
f 455/393/414 319/259/414 321/394/414 458/395/414
f 458/395/415 321/394/415 322/259/415 457/396/415
f 457/396/416 322/259/416 323/397/416 456/398/416
f 456/398/417 323/397/417 320/259/417 454/399/417
f 459/259/418 320/259/418 323/397/418 461/259/418
f 461/259/419 323/397/419 322/259/419 462/259/419
f 462/259/420 322/259/420 321/394/420 463/259/420
f 463/259/421 321/394/421 319/259/421 460/259/421
f 355/288/422 324/285/422 330/287/422 358/288/422
f 358/288/423 330/287/423 345/288/423 357/288/423
f 357/288/424 345/288/424 344/297/424 356/400/424
f 356/400/425 344/297/425 327/296/425 354/401/425
f 364/300/426 359/288/426 361/288/426 368/288/426
f 368/288/427 361/288/427 362/288/427 369/288/427
f 369/288/428 362/288/428 363/300/428 376/285/428
f 376/285/429 363/300/429 360/288/429 365/285/429
f 354/401/430 366/302/430 381/305/430 356/400/430
f 356/400/431 381/305/431 375/288/431 357/288/431
f 357/288/432 375/288/432 374/288/432 358/288/432
f 358/288/433 374/288/433 365/285/433 355/288/433
f 359/288/434 325/289/434 336/289/434 361/288/434
f 361/288/435 336/289/435 329/288/435 362/288/435
f 362/288/436 329/288/436 328/285/436 363/300/436
f 363/300/437 328/285/437 324/285/437 360/288/437
f 465/402/438 389/259/438 391/403/438 468/404/438
f 468/404/439 391/403/439 392/259/439 467/405/439
f 467/405/440 392/259/440 393/406/440 466/407/440
f 466/407/441 393/406/441 390/259/441 464/393/441
f 469/259/442 390/259/442 393/406/442 471/259/442
f 471/259/443 393/406/443 392/259/443 472/259/443
f 472/259/444 392/259/444 391/403/444 473/259/444
f 473/259/445 391/403/445 389/259/445 470/259/445
f 420/408/446 394/312/446 400/315/446 423/409/446
f 423/409/447 400/315/447 415/319/447 422/288/447
f 422/288/448 415/319/448 414/325/448 421/288/448
f 421/288/449 414/325/449 397/324/449 419/324/449
f 432/288/450 424/286/450 426/286/450 449/285/450
f 449/285/451 426/286/451 427/288/451 450/288/451
f 450/288/452 427/288/452 428/288/452 435/288/452
f 435/288/453 428/288/453 425/288/453 429/285/453
f 419/324/454 432/288/454 451/288/454 421/288/454
f 421/288/455 451/288/455 445/288/455 422/288/455
f 422/288/456 445/288/456 444/334/456 423/409/456
f 423/409/457 444/334/457 431/333/457 420/408/457
f 424/286/458 397/324/458 416/285/458 426/286/458
f 426/286/459 416/285/459 410/288/459 427/288/459
f 427/288/460 410/288/460 409/324/460 428/288/460
f 428/288/461 409/324/461 396/285/461 425/288/461
f 486/289/462 396/285/462 411/286/462 498/289/462
f 498/289/463 411/286/463 405/288/463 499/288/463
f 499/288/464 405/288/464 404/321/464 489/340/464
f 489/340/465 404/321/465 395/320/465 484/337/465
f 326/290/466 455/393/466 458/395/466 339/291/466
f 339/291/467 458/395/467 457/396/467 340/294/467
f 340/294/468 457/396/468 456/398/468 346/299/468
f 346/299/469 456/398/469 454/399/469 327/296/469
f 394/312/470 465/402/470 468/404/470 398/313/470
f 398/313/471 468/404/471 467/405/471 399/316/471
f 399/316/472 467/405/472 466/407/472 406/323/472
f 406/323/473 466/407/473 464/393/473 395/320/473
f 325/289/474 486/289/474 500/286/474 334/289/474
f 334/289/475 500/286/475 494/288/475 335/288/475
f 335/288/476 494/288/476 493/345/476 341/293/476
f 341/293/477 493/345/477 485/344/477 326/290/477
f 504/259/478 474/259/478 476/259/478 507/259/478
f 507/259/479 476/259/479 477/259/479 506/259/479
f 506/259/480 477/259/480 478/259/480 505/259/480
f 505/259/481 478/259/481 475/259/481 503/259/481
f 480/259/482 504/259/482 507/259/482 483/410/482
f 483/410/483 507/259/483 506/259/483 482/411/483
f 482/411/484 506/259/484 505/259/484 481/412/484
f 481/412/485 505/259/485 503/259/485 479/259/485
f 509/393/486 480/259/486 483/410/486 512/413/486
f 512/413/487 483/410/487 482/411/487 511/414/487
f 511/414/488 482/411/488 481/412/488 510/415/488
f 510/415/489 481/412/489 479/259/489 508/393/489
f 484/337/486 509/393/486 512/413/486 487/338/486
f 487/338/490 512/413/490 511/414/490 488/341/490
f 488/341/491 511/414/491 510/415/491 495/347/491
f 495/347/492 510/415/492 508/393/492 485/344/492
f 644/416/493 513/259/493 515/417/493 647/418/493
f 647/418/494 515/417/494 516/259/494 646/419/494
f 646/419/495 516/259/495 517/394/495 645/420/495
f 645/420/496 517/394/496 514/259/496 643/393/496
f 648/259/497 514/259/497 517/394/497 650/259/497
f 650/259/498 517/394/498 516/259/498 651/259/498
f 651/259/499 516/259/499 515/417/499 652/259/499
f 652/259/500 515/417/500 513/259/500 649/259/500
f 544/421/501 518/349/501 524/352/501 547/422/501
f 547/422/502 524/352/502 539/356/502 546/288/502
f 546/288/503 539/356/503 538/288/503 545/423/503
f 545/423/504 538/288/504 521/288/504 543/288/504
f 556/288/505 548/324/505 550/285/505 573/288/505
f 573/288/506 550/285/506 551/288/506 574/288/506
f 574/288/507 551/288/507 552/288/507 559/286/507
f 559/286/508 552/288/508 549/288/508 553/288/508
f 543/288/509 556/288/509 575/288/509 545/423/509
f 545/423/510 575/288/510 569/288/510 546/288/510
f 546/288/511 569/288/511 568/305/511 547/422/511
f 547/422/512 568/305/512 555/367/512 544/421/512
f 548/324/513 521/288/513 540/288/513 550/285/513
f 550/285/514 540/288/514 534/288/514 551/288/514
f 551/288/515 534/288/515 533/288/515 552/288/515
f 552/288/516 533/288/516 520/348/516 549/288/516
f 654/393/517 578/259/517 580/406/517 657/424/517
f 657/424/518 580/406/518 581/259/518 656/405/518
f 656/405/519 581/259/519 582/425/519 655/426/519
f 655/426/520 582/425/520 579/259/520 653/427/520
f 658/259/521 579/259/521 582/425/521 660/259/521
f 660/259/522 582/425/522 581/259/522 661/259/522
f 661/259/523 581/259/523 580/406/523 662/259/523
f 662/259/524 580/406/524 578/259/524 659/259/524
f 609/428/525 583/324/525 589/325/525 612/288/525
f 612/288/526 589/325/526 604/288/526 611/288/526
f 611/288/527 604/288/527 603/374/527 610/429/527
f 610/429/528 603/374/528 586/373/528 608/408/528
f 618/288/529 613/288/529 615/288/529 622/286/529
f 622/286/530 615/288/530 616/288/530 623/288/530
f 623/288/531 616/288/531 617/289/531 630/288/531
f 630/288/532 617/289/532 614/288/532 619/288/532
f 608/408/533 620/333/533 635/334/533 610/429/533
f 610/429/534 635/334/534 629/288/534 611/288/534
f 611/288/535 629/288/535 628/289/535 612/288/535
f 612/288/536 628/289/536 619/288/536 609/428/536
f 613/288/537 584/288/537 595/368/537 615/288/537
f 615/288/538 595/368/538 588/288/538 616/288/538
f 616/288/539 588/288/539 587/285/539 617/289/539
f 617/289/540 587/285/540 583/324/540 614/288/540
f 673/386/541 585/320/541 600/370/541 676/387/541
f 676/387/542 600/370/542 594/288/542 677/288/542
f 677/288/543 594/288/543 593/285/543 684/288/543
f 684/288/544 593/285/544 584/288/544 674/288/544
f 518/349/545 644/416/545 647/418/545 522/350/545
f 522/350/546 647/418/546 646/419/546 523/353/546
f 523/353/547 646/419/547 645/420/547 530/360/547
f 530/360/548 645/420/548 643/393/548 519/357/548
f 585/320/549 654/393/549 657/424/549 598/323/549
f 598/323/550 657/424/550 656/405/550 599/371/550
f 599/371/551 656/405/551 655/426/551 605/376/551
f 605/376/552 655/426/552 653/427/552 586/373/552
f 519/357/553 675/344/553 689/392/553 528/358/553
f 528/358/554 689/392/554 683/288/554 529/288/554
f 529/288/555 683/288/555 682/348/555 535/361/555
f 535/361/556 682/348/556 674/288/556 520/348/556
f 693/259/557 663/259/557 665/259/557 696/259/557
f 696/259/558 665/259/558 666/259/558 695/259/558
f 695/259/559 666/259/559 667/259/559 694/259/559
f 694/259/560 667/259/560 664/259/560 692/259/560
f 669/259/561 693/259/561 696/259/561 672/412/561
f 672/412/562 696/259/562 695/259/562 671/411/562
f 671/411/563 695/259/563 694/259/563 670/410/563
f 670/410/564 694/259/564 692/259/564 668/259/564
f 698/393/565 669/259/565 672/412/565 701/430/565
f 701/430/566 672/412/566 671/411/566 700/414/566
f 700/414/567 671/411/567 670/410/567 699/413/567
f 699/413/568 670/410/568 668/259/568 697/393/568
f 675/344/569 698/393/569 701/430/569 687/391/569
f 687/391/570 701/430/570 700/414/570 688/341/570
f 688/341/571 700/414/571 699/413/571 678/389/571
f 678/389/568 699/413/568 697/393/568 673/386/568
f 553/288/572 618/288/572 624/289/572 557/286/572
f 557/286/573 624/289/573 639/288/573 558/288/573
f 558/288/574 639/288/574 638/383/574 565/365/574
f 565/365/575 638/383/575 621/382/575 554/327/575
f 367/308/576 430/327/576 441/330/576 384/309/576
f 384/309/577 441/330/577 434/288/577 385/288/577
f 385/288/578 434/288/578 433/288/578 370/289/578
f 370/289/579 433/288/579 429/285/579 364/300/579
f 703/431/580 712/432/580 714/433/580 706/434/580
f 706/434/581 714/433/581 715/435/581 705/436/581
f 705/436/582 715/435/582 716/437/582 704/438/582
f 704/438/583 716/437/583 713/439/583 702/440/583
f 712/432/584 717/441/584 719/442/584 714/433/584
f 714/433/585 719/442/585 720/443/585 715/435/585
f 715/435/586 720/443/586 721/444/586 716/437/586
f 716/437/587 721/444/587 718/445/587 713/439/587
f 717/441/588 722/259/588 724/446/588 719/442/588
f 719/442/589 724/446/589 725/259/589 720/443/589
f 720/443/590 725/259/590 726/259/590 721/444/590
f 721/444/591 726/259/591 723/259/591 718/445/591
f 722/259/592 727/447/592 729/448/592 724/446/592
f 724/446/593 729/448/593 730/449/593 725/259/593
f 725/259/590 730/450/590 731/451/590 726/259/590
f 726/259/591 731/451/591 728/452/591 723/259/591
f 727/447/594 732/432/594 734/433/594 729/448/594
f 729/448/595 734/433/595 735/453/595 730/449/595
f 730/450/596 735/454/596 736/455/596 731/451/596
f 731/451/587 736/455/587 733/456/587 728/452/587
f 732/432/597 707/457/597 709/458/597 734/433/597
f 734/433/598 709/458/598 710/459/598 735/453/598
f 735/454/599 710/460/599 711/461/599 736/455/599
f 736/455/583 711/461/583 708/462/583 733/456/583
f 702/440/600 367/308/600 386/311/600 704/438/600
f 704/438/601 386/311/601 380/306/601 705/436/601
f 705/436/602 380/306/602 379/303/602 706/434/602
f 706/434/603 379/303/603 366/302/603 703/431/603
f 554/327/600 708/463/600 711/464/600 563/363/600
f 563/363/604 711/464/604 710/459/604 564/366/604
f 564/366/605 710/459/605 709/458/605 570/303/605
f 570/303/606 709/458/606 707/457/606 555/367/606
f 738/465/607 747/466/607 749/467/607 741/468/607
f 741/468/608 749/467/608 750/469/608 740/470/608
f 740/470/609 750/469/609 751/471/609 739/472/609
f 739/472/610 751/471/610 748/473/610 737/474/610
f 747/466/611 752/475/611 754/476/611 749/467/611
f 749/467/612 754/476/612 755/477/612 750/469/612
f 750/469/613 755/477/613 756/478/613 751/471/613
f 751/471/614 756/478/614 753/479/614 748/473/614
f 752/475/615 757/259/615 759/480/615 754/476/615
f 754/476/616 759/480/616 760/259/616 755/477/616
f 755/477/617 760/259/617 761/259/617 756/478/617
f 756/478/618 761/259/618 758/259/618 753/479/618
f 757/259/619 762/481/619 764/482/619 759/480/619
f 759/480/620 764/482/620 765/483/620 760/259/620
f 760/259/617 765/484/617 766/485/617 761/259/617
f 761/259/618 766/485/618 763/486/618 758/259/618
f 762/481/621 767/487/621 769/488/621 764/482/621
f 764/482/622 769/488/622 770/489/622 765/483/622
f 765/484/623 770/490/623 771/491/623 766/485/623
f 766/485/614 771/491/614 768/492/614 763/486/614
f 767/487/624 742/465/624 744/493/624 769/488/624
f 769/488/625 744/493/625 745/494/625 770/489/625
f 770/490/626 745/495/626 746/496/626 771/491/626
f 771/491/610 746/496/610 743/497/610 768/492/610
f 350/259/627 664/259/627 667/259/627 353/259/627
f 353/259/628 667/259/628 666/259/628 352/259/628
f 352/259/629 666/259/629 665/259/629 351/259/629
f 351/259/630 665/259/630 663/259/630 349/259/630
f 430/327/631 743/498/631 746/499/631 439/328/631
f 439/328/632 746/499/632 745/494/632 440/331/632
f 440/331/633 745/494/633 744/493/633 446/336/633
f 446/336/634 744/493/634 742/465/634 431/333/634
f 737/474/631 621/382/631 640/385/631 739/472/631
f 739/472/635 640/385/635 634/380/635 740/470/635
f 740/470/636 634/380/636 633/378/636 741/468/636
f 741/468/637 633/378/637 620/333/637 738/465/637
f 349/259/638 475/259/638 478/259/638 351/259/638
f 351/259/639 478/259/639 477/259/639 352/259/639
f 352/259/640 477/259/640 476/259/640 353/259/640
f 353/259/641 476/259/641 474/259/641 350/259/641
f 320/259/642 276/259/642 269/261/642 327/296/642 454/399/642
f 319/259/643 455/393/643 508/393/643 479/259/643
f 258/259/644 284/259/644 276/259/644 320/259/644 459/259/644
f 319/259/645 479/259/645 503/259/645 460/259/645
f 327/296/646 269/261/646 263/260/646 354/401/646
f 324/285/647 355/288/647 365/285/647 360/288/647
f 325/289/648 359/288/648 425/288/648 396/285/648 486/289/648
f 455/393/643 326/290/643 485/344/643 508/393/643
f 349/259/649 285/259/649 284/259/649 258/259/649
f 260/259/650 349/259/650 663/259/650
f 474/259/651 259/259/651 350/259/651
f 312/259/652 261/259/652 350/259/652
f 664/259/653 350/259/653 261/259/653
f 258/259/654 475/259/654 349/259/654
f 350/259/655 259/259/655 312/259/655
f 260/259/656 283/259/656 285/259/656 349/259/656
f 366/302/657 354/401/657 263/260/657 703/431/657
f 359/288/658 364/300/658 429/285/658 425/288/658
f 702/440/659 318/259/659 743/498/659 430/327/659 367/308/659
f 389/259/660 465/402/660 394/312/660 299/279/660 306/259/660
f 480/259/661 390/259/661 469/259/661 504/259/661
f 480/259/662 509/393/662 464/393/662 390/259/662
f 259/259/663 470/259/663 389/259/663 306/259/663
f 394/312/664 420/408/664 291/280/664 299/279/664
f 397/324/665 424/286/665 432/288/665 419/324/665
f 509/393/662 484/337/662 395/320/662 464/393/662
f 431/333/666 742/465/666 291/280/666 420/408/666
f 459/259/667 461/259/667 462/259/667 463/259/667 460/259/667 503/259/667 475/259/667 258/259/667
f 504/259/668 469/259/668 471/259/668 472/259/668 473/259/668 470/259/668 259/259/668 474/259/668
f 513/259/669 644/416/669 518/349/669 270/267/669 277/259/669
f 514/259/670 648/259/670 693/259/670 669/259/670
f 514/259/671 669/259/671 698/393/671 643/393/671
f 260/259/672 649/259/672 513/259/672 277/259/672 283/259/672
f 518/349/673 544/421/673 262/268/673 270/267/673
f 521/288/674 548/324/674 556/288/674 543/288/674
f 643/393/671 698/393/671 675/344/671 519/357/671
f 520/348/675 674/288/675 584/288/675 613/288/675 549/288/675
f 555/367/676 707/457/676 262/268/676 544/421/676
f 549/288/677 613/288/677 618/288/677 553/288/677
f 318/259/659 708/463/659 554/327/659 621/382/659 737/474/659
f 579/259/678 305/259/678 298/273/678 586/373/678 653/427/678
f 668/259/679 578/259/679 654/393/679 697/393/679
f 261/259/680 305/259/680 579/259/680 658/259/680
f 668/259/681 692/259/681 659/259/681 578/259/681
f 586/373/682 298/273/682 292/272/682 608/408/682
f 583/324/683 609/428/683 619/288/683 614/288/683
f 697/393/679 654/393/679 585/320/679 673/386/679
f 620/333/684 608/408/684 292/272/684 738/465/684
f 648/259/685 650/259/685 651/259/685 652/259/685 649/259/685 260/259/685 663/259/685 693/259/685
f 692/259/686 664/259/686 261/259/686 658/259/686 660/259/686 661/259/686 662/259/686 659/259/686
f 702/440/659 713/439/659 318/259/659
f 268/263/687 712/432/687 703/431/687 263/260/687
f 262/268/688 707/457/688 732/432/688 264/263/688
f 733/456/659 708/462/659 318/259/659
f 713/439/659 718/445/659 318/259/659
f 267/265/689 717/441/689 712/432/689 268/263/689
f 718/445/659 723/259/659 318/259/659
f 266/259/690 722/259/690 717/441/690 267/265/690
f 723/259/659 728/452/659 318/259/659
f 265/265/691 727/447/691 722/259/691 266/259/691
f 728/452/659 733/456/659 318/259/659
f 264/263/692 732/432/692 727/447/692 265/265/692
f 737/474/659 748/473/659 318/259/659
f 297/275/693 747/466/693 738/465/693 292/272/693
f 291/280/694 742/465/694 767/487/694 293/275/694
f 768/492/659 743/497/659 318/259/659
f 748/473/659 753/479/659 318/259/659
f 296/277/695 752/475/695 747/466/695 297/275/695
f 753/479/659 758/259/659 318/259/659
f 295/259/696 757/259/696 752/475/696 296/277/696
f 758/259/659 763/486/659 318/259/659
f 294/277/697 762/481/697 757/259/697 295/259/697
f 763/486/659 768/492/659 318/259/659
f 293/275/698 767/487/698 762/481/698 294/277/698
o Blade_Edge
v -0.120000 7.334784 0.001440
v 0.120000 6.975049 0.002400
v 0.000000 7.568932 -0.000000
v -0.438132 -1.999691 0.009062
v 0.438132 -1.999691 0.009062
v 0.020624 7.465316 0.004056
v -0.120000 7.334784 -0.001440
v 0.120000 6.975049 -0.002400
v -0.438132 -1.999691 -0.009062
v 0.438132 -1.999691 -0.009062
v 0.020624 7.465316 -0.004056
vn -0.8899 0.4561 -0.0000
vn 0.9802 0.1981 -0.0000
vt 0.000000 0.000000
s 0
usemtl Blade_Edge_Material
f 774/500/699 778/500/699 772/500/699
f 773/500/700 779/500/700 774/500/700
l 775 772
l 773 776
l 774 777
l 780 778
l 779 781
l 774 782
